<svg width="1317" height="994" viewBox="0 0 1317 994" fill="none" xmlns="http://www.w3.org/2000/svg">
<g clip-path="url(#clip0_6_3)">
<path d="M380.694 493.083C380.694 493.083 380.481 493.321 379.783 493.275C376.627 494.809 374.169 496.39 371.71 497.971C371.71 497.971 371.696 497.973 371.212 497.976C359.605 501.212 351.156 507.058 343.616 513.791C343.616 513.791 343.62 513.668 343.211 513.652C338.723 516.188 334.644 518.739 330.566 521.291C330.566 521.291 330.536 521.268 330.073 521.274C328.099 521.781 326.404 522.094 325.107 522.814C315.129 528.363 305.169 533.932 295.343 539.632C292.757 541.132 290.662 543.113 288.342 544.873C288.342 544.873 288.354 544.751 287.936 544.729C279.304 548.899 270.961 552.955 262.909 557.317C251.213 563.652 240.046 570.576 228.019 576.518C221.796 579.593 216.864 583.267 212.473 587.59C212.473 587.59 212.454 587.466 212.034 587.443C205.573 590.302 199.337 592.978 193.542 596.119C186.737 599.807 180.315 603.898 173.101 608.186C169.348 602.915 166.225 598.4 162.944 593.952C158.787 588.319 158.888 588.526 166.326 584.935C168.459 583.905 170.678 581.466 170.655 579.689C170.59 574.618 171.641 569.631 170.155 564.379C168.493 558.511 169.498 552.159 169.85 546.033C170.23 539.434 171.138 532.828 182.741 530.315C182.245 533.534 181.361 536.451 181.428 539.356C181.644 548.656 182.157 557.953 182.731 567.246C182.785 568.122 184.075 568.956 184.955 570.103C185.206 570.815 185.294 571.233 185.058 571.832C185.151 572.535 185.568 573.057 185.985 573.579C187.261 572.486 188.536 571.392 189.866 570.306C189.921 570.313 189.873 570.388 190.255 570.41C190.871 570.117 191.106 569.802 191.33 569.554C191.32 569.621 191.229 569.505 191.686 569.567C192.793 568.996 193.443 568.363 194.143 567.771C194.192 567.813 194.054 567.771 194.479 567.774C195.444 567.369 195.986 566.96 196.526 566.616C196.525 566.682 196.387 566.602 196.869 566.669C200.526 564.778 203.7 562.821 206.942 560.911C207.009 560.958 206.832 560.918 207.323 560.964C209.67 559.69 211.526 558.371 213.434 557.095C213.485 557.138 213.345 557.093 213.826 557.121C216.178 555.864 218.048 554.579 219.924 553.298C219.929 553.301 219.922 553.293 220.39 553.295C222.134 552.508 223.409 551.72 224.714 551.038C224.743 551.144 224.592 550.96 225.076 551.063C226.64 550.172 227.72 549.179 229.031 547.918C241.824 540.475 254.386 533.299 266.949 526.124C251.43 525.086 236.689 525.135 221.95 525.07C210.424 525.018 198.9 524.823 187.557 524.405C194.799 519.922 201.86 515.726 209.368 511.818C234.873 512.161 259.931 512.268 284.987 512.147C286.653 512.139 289.222 510.655 289.824 509.426C300.064 488.529 310.058 467.564 320.335 446.329C328.258 441.876 335.954 437.707 343.704 433.966C342.887 436.719 342.202 439.096 341.111 441.361C334.527 455.028 327.823 468.663 321.218 482.324C318.611 487.716 316.152 493.149 313.625 498.562C314.071 498.81 314.516 499.058 314.962 499.305C333.864 488.828 352.767 478.351 371.96 467.802C372.618 467.572 372.883 467.344 373.064 467.001C373.083 466.953 373.199 467.001 373.627 466.987C374.991 466.348 375.927 465.721 376.996 464.962C377.129 464.829 377.557 464.749 378.044 464.796C381.727 462.844 384.924 460.846 388.147 458.975C388.174 459.103 388.065 458.858 388.522 458.931C390.357 457.953 391.735 456.903 393.304 455.863C393.494 455.873 393.12 455.817 393.611 455.94C395.922 454.72 397.741 453.376 399.62 452.167C399.68 452.301 399.61 452.023 400.087 452.098C401.546 451.394 402.529 450.614 403.627 449.677C403.968 449.335 404.249 449.236 405.074 449.263C407.989 447.728 410.413 446.153 412.843 444.58C412.849 444.582 412.843 444.573 413.321 444.579C418.63 441.684 423.461 438.782 428.415 435.764C428.539 435.646 428.93 435.599 429.415 435.653C431.067 434.774 432.235 433.842 433.415 432.921C433.427 432.934 433.397 432.914 433.891 432.922C436.163 431.849 437.941 430.767 439.719 429.686C437.667 428.837 435.689 427.846 433.531 427.197C432.425 426.864 430.997 427.142 429.715 427.142C407.7 427.143 385.684 427.198 363.671 427.055C361.587 427.042 359.517 425.787 357.473 425.137C357.505 425.167 357.47 425.096 357.924 425.083C361.076 423.444 363.774 421.818 366.473 420.237C366.476 420.283 366.387 420.22 366.83 420.222C368.718 419.233 370.163 418.241 371.598 417.292C371.587 417.335 371.488 417.291 372.11 417.322C399.053 417.358 425.376 417.395 451.697 417.308C453.777 417.301 455.852 416.437 458.409 415.866C459.88 415.674 460.872 415.587 462.308 415.438C465.279 410.851 467.89 406.35 470.312 401.793C474.797 393.353 478.967 384.816 483.638 376.436C490.373 364.357 492.389 350.859 502.933 339.855C502.936 339.778 503.137 339.798 503.587 339.774C507.494 337.544 510.952 335.338 514.603 332.995C514.796 332.858 515.312 332.771 515.733 332.99C515.669 336.41 515.184 339.613 514.652 342.746C514.605 342.678 514.759 342.779 514.331 342.905C512.905 344.446 511.678 345.797 510.944 347.286C502.447 364.521 494.01 381.774 485.624 399.04C485.154 400.009 485.273 401.141 485.077 402.477C488.803 402.903 491.972 403.478 492.483 399.824C492.575 399.895 492.363 399.777 492.8 399.795C493.869 399.19 494.502 398.567 495.262 397.713C495.78 397.339 496.17 397.198 497.045 397.059C504.08 395.092 510.573 393.066 514.204 387.923C514.414 387.949 514.005 387.86 514.474 387.971C516.824 386.771 518.705 385.461 520.743 384.244C520.9 384.337 520.569 384.17 521.009 384.213C522.11 383.649 522.769 383.042 523.443 382.446C523.456 382.457 523.43 382.436 523.894 382.42C526.506 381.03 528.653 379.654 530.925 378.389C531.05 378.499 530.81 378.284 531.278 378.35C533.177 377.329 534.608 376.242 536.131 375.014C536.225 374.875 536.596 374.734 537.066 374.728C541.409 372.42 545.282 370.117 549.264 367.71C549.372 367.605 549.723 367.592 550.221 367.663C555.348 364.874 559.977 362.014 564.609 359.157C564.612 359.16 564.605 359.155 565.003 359.147C565.948 358.763 566.496 358.388 567.064 358.081C567.085 358.149 566.975 358.036 567.446 358.062C573.146 355.43 578.552 352.946 583.549 350.06C587.617 347.711 591.196 344.879 595.168 342.329C595.343 342.397 595.03 342.217 595.495 342.326C600.081 339.926 604.202 337.417 608.328 334.895C608.332 334.882 608.367 334.882 608.834 334.895C610.689 333.927 612.076 332.946 613.475 331.972C613.485 331.98 613.467 331.963 613.876 331.957C614.781 331.534 615.278 331.119 615.794 330.816C615.814 330.93 615.705 330.717 616.165 330.789C617.713 329.928 618.799 328.995 620.126 327.792C621.101 326.89 621.836 326.258 623.087 325.18C621.234 324.986 620.235 324.789 619.236 324.79C592.761 324.822 566.286 324.9 539.811 324.881C537.131 324.879 534.451 324.312 531.912 323.682C538.867 319.175 545.68 314.994 552.935 311.094C583.573 311.448 613.769 311.523 643.965 311.567C644.531 311.568 645.098 311.193 645.688 310.985C645.688 292.68 645.688 274.434 645.941 255.927C655.967 249.954 655.967 249.954 663.469 256.189C663.294 274.833 663.294 292.999 663.294 311.535C695.821 311.535 727.386 311.535 759.357 311.646C766.086 315.78 772.408 319.804 778.207 324.046C776.428 324.433 775.172 324.752 773.917 324.75C754.005 324.72 734.093 324.64 714.181 324.59C705.144 324.567 696.107 324.586 687.069 324.586C686.939 325.13 686.809 325.674 686.679 326.218C691.465 329.084 696.146 332.059 701.058 334.796C715.312 342.741 729.659 350.59 744.161 358.77C746.189 360.013 748.025 360.964 749.856 361.986C749.851 362.058 750.041 362.056 750.068 362.261C750.094 362.466 750.484 362.752 750.484 362.752C750.484 362.752 751.028 362.746 751.266 362.902C751.504 363.058 752.117 363.165 752.255 363.444C753.278 364.066 754.163 364.409 755.042 364.837C755.036 364.922 755.262 364.909 755.363 365.205C757.037 366.226 758.611 366.95 760.202 367.771C760.22 367.866 760.475 367.857 760.474 368.03C760.472 368.204 760.812 368.435 760.812 368.435C760.812 368.435 761.248 368.332 761.543 368.577C762.57 369.163 763.302 369.503 764.201 370.114C765.5 370.854 766.634 371.324 767.784 371.793C767.802 371.793 767.806 371.819 767.899 372.05C768.273 372.57 768.649 372.691 769.314 372.895C769.954 373.327 770.401 373.507 770.849 373.839C770.851 373.991 771.147 374.191 771.147 374.191C771.147 374.191 771.523 374.093 771.83 374.31C772.4 374.598 772.664 374.669 773.024 374.961C773.37 375.486 773.727 375.597 774.468 375.776C776.919 377.222 779.09 378.408 781.22 379.732C781.179 379.869 781.486 380.026 781.486 380.026C781.486 380.026 781.776 379.851 782.071 380.105C783.819 381.114 785.273 381.869 786.889 382.899C787.922 383.565 788.794 383.955 789.924 384.579C791.279 385.339 792.376 385.866 793.569 386.622C793.928 387.167 794.298 387.276 795.041 387.418C796.427 388.198 797.546 388.738 798.777 389.476C799.146 389.933 799.483 390.021 800.105 390.103C800.311 390.268 800.891 390.387 801.04 390.664C802.081 391.306 802.972 391.671 804.039 392.282C804.865 392.767 805.515 393.006 806.292 393.525C807.289 394.164 808.159 394.524 809.21 395.161C810.522 395.977 811.654 396.517 812.97 397.345C815.116 398.68 817.077 399.727 819.038 400.775C819.453 400.535 819.868 400.295 820.284 400.056C819.163 398.3 818.042 396.544 816.904 394.492C816.656 393.845 816.424 393.494 816.263 392.813C815.256 390.636 814.179 388.788 813.098 386.651C812.877 386.013 812.661 385.665 812.487 385.081C812.431 384.501 812.163 384.268 811.723 383.84C811.528 383.156 811.336 382.778 811.201 382.163C811.136 381.588 810.854 381.361 810.415 380.932C810.203 380.237 809.99 379.856 809.833 379.252C809.782 378.71 809.527 378.488 809.132 378.149C809.14 377.936 808.845 377.573 808.899 377.265C808.497 376.25 808.04 375.542 807.615 374.796C807.646 374.759 807.538 374.726 807.558 374.449C807.262 373.9 806.946 373.627 806.621 373C804.242 367.81 801.79 362.994 799.52 358.131C794.706 347.822 789.987 337.488 785.633 327.212C794.096 331.985 802.154 336.711 810.287 341.747C810.79 342.261 811.22 342.465 811.604 342.662C811.56 342.656 811.584 342.59 811.373 342.958C822.393 366.699 833.581 390.083 844.991 413.405C845.506 414.456 848.036 415.596 849.63 415.599C878.766 415.657 907.902 415.546 937.383 415.62C940.705 417.614 943.683 419.461 946.649 421.674C947.413 423.421 948.189 424.801 949.211 426.618C934.647 426.618 920.673 426.523 906.702 426.647C894.595 426.754 882.489 427.057 870.392 427.44C869.252 427.476 867.481 428.608 867.281 429.413C867.102 430.133 868.469 431.351 869.554 431.895C870.709 432.475 872.335 432.522 873.997 432.816C874.238 432.83 874.563 433.102 874.614 433.391C875.236 433.973 875.807 434.265 876.278 434.59C876.178 434.621 876.236 434.464 876.284 434.787C877.085 435.323 877.838 435.537 878.518 435.77C878.444 435.789 878.557 435.707 878.52 436.081C879.587 440.908 884.332 441.132 888.827 441.582C888.755 441.6 888.852 441.512 888.854 441.886C890.666 442.992 892.476 443.725 894.544 444.485C894.801 444.514 895.14 444.811 895.197 445.095C895.834 445.631 896.415 445.883 896.863 446.188C896.73 446.242 896.932 446.073 896.904 446.437C898.601 447.521 900.326 448.242 901.883 448.979C901.715 448.995 902.053 449.006 902.04 449.368C903.308 450.162 904.589 450.594 905.83 451.078C905.792 451.131 905.731 451.02 905.818 451.337C906.674 451.844 907.442 452.034 908.134 452.228C908.059 452.232 908.179 452.162 908.164 452.526C909.546 453.544 910.944 454.198 912.312 454.928C912.283 455.003 912.231 454.851 912.288 455.176C913.113 455.701 913.882 455.9 914.564 456.112C914.478 456.126 914.619 456.046 914.596 456.398C918.017 459.18 921.368 461.694 924.982 463.968C925.686 464.411 927.414 463.927 929.06 463.907C929.999 464.337 930.549 464.73 931.196 465.439C932.227 466.103 933.162 466.452 934.449 466.834C935.294 467.223 935.786 467.58 936.331 468.242C936.976 468.848 937.569 469.151 938.063 469.473C937.964 469.493 938.08 469.366 938.059 469.73C939.318 470.533 940.596 470.973 941.828 471.464C941.782 471.514 941.748 471.394 941.829 471.712C942.673 472.225 943.435 472.421 944.115 472.626C944.033 472.635 944.174 472.57 944.182 472.922C945.437 473.729 946.683 474.182 947.905 474.654C947.88 474.673 947.927 474.633 947.974 474.966C948.947 475.663 949.873 476.026 950.728 476.426C950.657 476.463 950.636 476.334 950.751 476.628C951.585 477.142 952.304 477.362 953.024 477.584C953.024 477.586 953.031 477.586 953.097 477.921C954.118 478.64 955.072 479.024 956.36 479.426C957.249 479.916 957.805 480.389 958.45 481.204C959.32 481.812 960.101 482.08 960.809 482.352C960.736 482.358 960.87 482.312 960.866 482.661C964.382 486.735 967.756 490.633 975.447 489.967C976.375 490.399 976.926 490.775 977.517 491.501C979.748 492.867 981.938 493.884 984.068 494.921C984.009 494.942 984.012 494.843 984.151 495.124C984.999 495.618 985.708 495.832 986.441 496.036C986.466 496.027 986.451 496.067 986.609 496.278C987.135 496.644 987.504 496.797 987.823 496.965C987.774 496.979 987.811 496.905 987.936 497.142C988.437 497.552 988.813 497.726 989.125 497.893C989.062 497.887 989.177 497.845 989.134 498.207C990.027 499.366 990.953 500.804 991.903 500.814C993.429 500.828 994.972 499.899 996.508 499.368C995.573 498.901 994.638 498.433 993.427 497.684C993.081 496.942 993.011 496.481 993.276 495.801C992.44 493.825 991.269 492.068 990.142 490.268C990.187 490.225 990.174 490.334 990.221 489.987C989.79 488.874 989.313 488.108 988.893 487.333C988.952 487.323 988.901 487.404 988.947 486.996C988.455 483.08 987.927 479.571 987.378 476.063C987.102 474.296 986.397 472.508 986.588 470.773C986.866 468.246 987.794 465.877 983.202 464.888C981.629 464.549 979.793 463.521 979.124 462.439C976.985 458.981 975.49 455.3 973.432 451.81C972.507 450.242 970.835 448.926 969.42 447.396C969.339 447.297 969.52 447.107 969.578 446.674C968.781 443.689 967.637 441.166 967.198 438.575C966.992 437.359 968.145 436.011 968.651 434.761C968.62 434.798 968.537 434.736 968.718 435.01C969.39 435.436 969.881 435.589 970.554 435.706C970.736 435.67 971.035 435.842 971.083 436.192C973.054 437.55 974.977 438.558 977.04 439.498C977.18 439.428 977.458 439.571 977.498 439.928C978.907 440.992 980.277 441.701 981.598 442.453C981.548 442.498 981.484 442.393 981.62 442.688C982.508 443.169 983.26 443.354 983.952 443.538C983.894 443.536 983.996 443.493 983.961 443.89C986.853 454.839 994.21 464.712 991.721 477.239C998.203 471.379 998.163 478.682 1001.93 478.76C1002.12 479.286 1002.11 479.608 1002.06 480.355C1005.55 489.422 1008.95 498.101 1012.75 506.679C1013.57 508.515 1012.13 512.135 1017.86 511.662C1018.74 512.011 1019.32 512.247 1019.98 512.832C1029.12 513.529 1038.24 514.477 1047.25 514.078C1059.08 513.554 1070.67 512.617 1081.69 517.12C1083.23 517.749 1085.83 517.15 1087.85 516.811C1091.82 516.146 1095.72 515.263 1099.59 514.82C1098.28 517.849 1097.03 520.528 1095.17 523.208C1077.66 523.21 1060.75 523.131 1043.84 523.304C1041.5 523.328 1039.18 524.6 1036.85 525.294C1038.88 526.567 1040.91 527.84 1043.03 529.441C1049.1 534.055 1055.08 538.341 1061.06 543.012C1060.71 544.457 1060.57 546.363 1059.98 546.445C1053.86 547.296 1052.3 551.457 1049.1 554.446C1048.47 555.034 1046.81 554.995 1045.19 555.102C1035.53 550.618 1026.33 546.225 1017.03 541.974C1015.05 541.072 1012.65 540.692 1010.45 540.072C1010.45 540.072 1010.45 539.868 1010.58 539.593C1010.43 538.591 1010.46 537.545 1009.82 537.186C998.102 530.616 986.344 524.086 974.463 517.686C973.137 516.972 971.017 517.096 969.266 516.832C969.266 516.832 969.287 516.587 969.307 516.346C967.607 515.353 965.887 514.601 964.168 513.849C964.168 513.849 964.271 513.677 964.236 513.421C963.412 512.421 962.778 511.528 961.81 510.957C952.025 505.178 942.225 499.413 932.3 493.775C931.355 493.238 929.529 493.584 928.111 493.521C928.111 493.521 928.141 493.345 928.157 493.077C924.441 490.479 920.699 488.158 916.978 485.818C911.045 482.087 905.265 478.208 899.169 474.636C889.517 468.981 879.03 464.039 870.12 457.799C864.733 454.027 859.673 451.074 852.339 450.65C852.339 450.65 852.581 450.607 852.55 450.284C851.665 446.743 848.52 446.391 844.983 446.528C844.983 446.528 844.989 446.523 844.94 446.18C843.496 445.2 842.101 444.564 840.707 443.929C840.707 443.929 840.807 443.825 840.775 443.542C838.87 441.722 837.257 439.921 835.078 438.691C823.696 432.263 812.087 426.064 800.72 419.621C791.362 414.317 781.954 409.026 773.146 403.229C769.874 401.075 767.18 399.312 762.728 399.915C762.728 399.915 762.674 399.931 762.674 399.561C758.075 396.125 753.633 392.906 748.796 390.071C747.013 389.027 744.297 388.89 742.006 388.339C742.006 388.339 742.108 388.298 742.049 387.985C733.671 381.899 725.877 375.603 716.913 370.471C702.646 362.304 687.583 354.931 672.899 347.175C670.465 345.889 668.391 344.195 665.878 343.021C664.421 342.341 662.42 342.322 660.664 342.006C660.664 342.006 661.018 341.94 660.935 341.608C657.48 337.354 654.716 336.918 650.482 339.458C648.37 340.726 645.789 341.581 643.832 342.957C642.01 344.238 640.735 345.961 639.219 347.489C639.219 347.489 639.217 347.52 638.701 347.514C630.731 349.043 624.821 352.037 621.559 357.534C621.559 357.534 621.263 357.436 620.965 357.397C619.559 358.232 618.451 359.106 617.343 359.981C617.343 359.981 617.111 360.263 616.386 360.249C614.464 360.543 613.076 360.653 612.101 361.19C605.284 364.94 598.6 368.826 591.78 372.573C586.463 375.493 581.272 378.624 575.559 381.033C567.568 384.402 561.451 389.14 555.843 394.405C555.843 394.405 555.853 394.287 555.416 394.245C549.036 396.456 542.599 398.195 537.276 401.097C531.13 404.447 526.328 409.18 520.294 412.675C509.668 418.83 498.382 424.332 487.673 430.41C465.564 442.959 443.647 455.7 421.664 468.375C408.694 475.853 395.737 483.342 382.822 490.874C381.906 491.409 381.394 492.337 380.694 493.083Z" fill="#FF6A00"/>
<path d="M515.312 332.771C515.312 332.771 514.796 332.858 514.175 333.014C510.081 335.378 506.609 337.588 503.137 339.798C503.137 339.798 502.936 339.778 502.513 339.868C499.794 341.258 497.498 342.558 494.839 344.091C468.285 359.592 442.046 374.813 415.923 390.147C401.79 398.442 387.854 406.929 373.454 415.389C372.548 416.062 372.018 416.677 371.488 417.291C371.488 417.291 371.587 417.335 371.154 417.318C369.276 418.274 367.832 419.247 366.387 420.22C366.387 420.22 366.476 420.283 366.025 420.277C362.873 421.879 360.171 423.487 357.47 425.096C357.47 425.096 357.505 425.167 357.061 425.194C354.514 426.262 352.412 427.301 349.971 428.59C347.638 430.406 345.644 431.973 343.65 433.539C335.954 437.707 328.258 441.876 319.921 446.397C299.609 458.172 279.88 469.539 260.284 481.035C243.086 491.125 226.036 501.359 208.921 511.529C201.86 515.726 194.799 519.922 187.173 524.521C185.972 525.33 185.337 525.736 184.286 526.183C178.678 529.379 173.486 532.534 168.295 535.689C159.169 540.693 149.961 545.614 140.943 550.726C132.433 555.551 124.124 560.578 114.24 566.39C115.063 562.838 115.449 560.58 116.121 558.372C118.996 548.929 121.785 539.468 125.032 530.098C125.655 528.298 127.843 526.532 129.904 525.33C175.818 498.562 221.875 471.933 267.784 445.159C335.709 405.545 403.549 365.848 471.409 326.171C531.323 291.138 591.261 256.128 651.017 220.944C655.136 218.518 657.087 220.223 659.714 221.755C697.333 243.685 734.944 265.621 772.539 287.574C881.056 350.939 989.562 414.314 1098.08 477.68C1124.49 493.102 1150.94 508.483 1177.3 523.952C1179.22 525.08 1181.47 526.597 1182.03 528.233C1186.05 539.933 1189.67 551.711 1193.82 564.747C1174.79 553.893 1157.01 543.752 1138.57 533.255C1130.82 528.964 1123.71 525.029 1116.55 521.112C1116.5 521.13 1116.52 521.209 1116.43 520.949C1115.93 520.532 1115.52 520.376 1115.11 520.256C1115.1 520.291 1115.17 520.247 1115.01 519.958C1113.67 519.205 1112.49 518.741 1111.26 518.315C1111.22 518.352 1111.32 518.284 1111.22 517.97C1109.02 516.58 1106.92 515.506 1104.82 514.439C1104.8 514.448 1104.84 514.439 1104.72 514.167C1103.55 513.112 1102.5 512.329 1101.16 511.28C1062.65 488.705 1024.42 466.396 986.001 443.907C985.206 443.649 984.601 443.571 983.996 443.493C983.996 443.493 983.894 443.536 983.796 443.251C982.96 442.775 982.222 442.584 981.484 442.393C981.484 442.393 981.548 442.498 981.53 442.136C980.161 441.04 978.809 440.306 977.458 439.571C977.458 439.571 977.18 439.428 976.853 439.187C974.696 437.91 972.865 436.876 971.035 435.842C971.035 435.842 970.735 435.67 970.335 435.452C969.469 435.068 969.003 434.902 968.537 434.736C968.537 434.736 968.62 434.798 968.553 434.448C966.546 433.244 964.607 432.389 962.443 431.26C960.231 429.91 958.243 428.834 956.114 427.437C952.869 425.18 949.765 423.243 946.661 421.307C943.683 419.46 940.705 417.614 937.096 415.34C908.645 398.605 880.883 382.24 852.979 366.015C839.318 358.073 825.391 350.39 811.584 342.59C811.584 342.59 811.56 342.656 811.53 342.373C811.071 341.873 810.641 341.655 810.212 341.437C802.154 336.711 794.096 331.985 785.358 326.927C782.695 325.672 780.713 324.75 778.73 323.828C772.408 319.804 766.086 315.78 759.168 311.353C741.369 300.842 724.209 290.691 706.947 280.639C692.575 272.269 678.083 264.016 663.644 255.711C655.967 249.953 655.967 249.953 645.539 256.065C614.087 274.58 583.29 292.696 552.493 310.812C545.68 314.994 538.867 319.175 531.537 323.779C527.565 326.105 524.11 328.01 520.227 329.971C518.303 330.942 516.808 331.857 515.312 332.771Z" fill="white"/>
<path d="M721.51 392.43C722.73 392.355 723.95 392.28 726.113 392.148C711.048 416.557 696.328 440.408 681.115 465.059C705.596 465.059 728.738 465.059 752.718 465.059C694.53 522.735 636.977 579.783 579.423 636.831C578.828 636.673 578.233 636.515 577.637 636.357C591.679 598.095 605.721 559.834 619.952 521.058C598.868 521.058 578.375 521.058 556.949 521.058C570.073 478.565 583.022 436.639 596.84 394.412C636.802 394.111 675.893 394.136 714.984 394.036C717.162 394.03 719.335 392.989 721.51 392.43ZM620.683 573.439C622.594 571.587 624.506 569.735 626.346 567.864C626.346 567.864 626.38 567.916 627.164 567.631C656.736 538.368 686.309 509.105 715.882 479.842C715.443 479.307 715.003 478.772 714.564 478.237C694.286 478.237 674.007 478.237 653.443 478.237C654.968 474.872 656.116 472.342 657.603 469.384C657.943 468.964 658.282 468.543 659.305 467.651C660.04 466.145 660.775 464.639 662.007 462.978C662.328 462.805 662.478 462.57 663.092 461.89C663.215 461.312 663.338 460.733 663.645 459.716C663.645 459.716 663.708 459.258 664.478 458.994C665.111 458.087 665.745 457.18 667.023 455.833C667.719 454.404 668.415 452.975 669.181 451.575C669.181 451.575 669.252 451.603 669.904 451.142C672.245 446.928 674.586 442.713 677.606 437.998C681.171 432.115 684.735 426.231 688.991 419.935C691.663 415.441 694.336 410.946 697.293 405.972C682.887 405.972 669.489 405.972 654.894 405.756C642.701 405.715 630.493 405.929 618.322 405.52C612.652 405.329 610.601 406.824 609.374 410.832C600.059 441.285 590.453 471.686 580.977 502.11C580.463 503.758 580.3 505.468 579.847 507.806C601.301 507.806 621.93 507.806 643.747 507.806C642.703 511.136 642.032 513.746 641.063 516.291C634.405 533.784 627.685 551.263 620.277 569.256C620.172 570.74 620.067 572.224 619.372 573.818C619.301 574.169 619.23 574.52 619.159 574.87C619.29 574.886 619.422 574.903 619.554 574.919C619.659 574.494 619.764 574.068 620.683 573.439Z" fill="white"/>
<path d="M802.847 490.205C802.847 530.59 802.847 570.49 802.847 610.524C787.787 610.524 773.143 610.524 758.144 610.524C758.144 550.146 758.144 490.084 758.144 429.129C762.089 431.321 765.444 433.175 768.785 435.044C778.062 440.234 787.158 445.623 796.68 450.544C801.457 453.012 803.148 455.804 802.963 460.134C802.541 469.986 802.841 479.857 802.847 490.205Z" fill="white"/>
<path d="M541.314 552.33C541.305 571.865 541.305 590.916 541.305 610.385C526.217 610.385 511.615 610.385 496.29 610.385C496.29 608.369 496.29 606.318 496.29 604.267C496.293 555.613 496.274 506.96 496.39 458.307C496.394 456.584 497.025 454.158 498.582 453.252C512.273 445.292 526.242 437.603 541.323 429.165C541.323 470.654 541.323 511.249 541.314 552.33Z" fill="white"/>
<path d="M860.586 574.656C860.586 586.755 860.586 598.368 860.586 610.38C845.482 610.38 830.875 610.38 815.819 610.38C815.819 561.049 815.819 511.817 815.819 461.767C817.843 462.75 819.554 463.482 821.123 464.357C832.819 470.886 844.416 477.517 856.211 483.942C859.503 485.735 860.722 487.675 860.702 490.781C860.521 518.577 860.59 546.374 860.586 574.656Z" fill="white"/>
<path d="M483.648 525.15C483.648 553.758 483.648 581.879 483.648 610.406C468.665 610.406 454.032 610.406 438.894 610.406C438.776 609.047 438.55 607.647 438.55 606.248C438.546 567.596 438.526 528.944 438.704 490.292C438.712 488.487 439.844 486.021 441.608 484.99C454.634 477.38 467.951 470.052 481.196 462.657C481.649 462.404 482.319 462.373 483.648 462.058C483.648 483.128 483.648 503.897 483.648 525.15Z" fill="white"/>
<path d="M381.197 523.636C381.781 521.571 381.632 519.243 383.036 518.412C396.782 510.284 410.786 502.406 425.683 493.906C425.683 533.321 425.683 571.795 425.683 610.566C411.271 610.566 396.812 610.566 381.185 610.566C381.185 581.699 381.185 552.884 381.197 523.636Z" fill="white"/>
<path d="M872.981 580.48C872.983 551.622 872.983 523.249 872.983 493.666C883.899 499.777 893.172 505.726 903.409 510.498C914.92 515.864 919.077 522.473 918.547 532.963C917.314 557.341 918.192 581.78 918.214 606.194C918.215 607.46 918.214 608.726 918.214 610.37C903.119 610.37 888.488 610.37 872.979 610.37C872.979 600.563 872.979 590.764 872.981 580.48Z" fill="white"/>
<path d="M1061.91 721.998C960.755 721.996 860.136 722.003 759.518 721.978C751.313 721.976 751.313 721.874 752.673 713C877.239 713 1001.88 713 1127 713C1127 715.666 1127 718.373 1127 722C1105.47 722 1083.96 722 1061.91 721.998Z" fill="#FF6A00"/>
<path d="M258.468 721.951C234.062 721.953 210.196 721.953 186.329 721.95C183.646 714.417 184.661 713.021 192.755 713.021C294.194 713.015 395.634 713.002 497.073 713C502.1 713 507.138 713.3 512.149 713.056C516.175 712.86 516.822 714.642 516.987 717.903C517.172 721.581 515.38 722.003 512.157 722C441.239 721.942 370.322 721.959 299.404 721.96C285.939 721.96 272.473 721.952 258.468 721.951Z" fill="#FF6A00"/>
<path d="M930.252 544.565C930.249 538.45 930.249 532.819 930.249 526.054C937.814 530.216 944.476 533.828 951.058 537.52C957.248 540.991 963.072 544.888 969.586 547.958C974.716 550.375 975.798 553.348 975.731 557.583C975.456 575.037 975.616 592.495 975.616 610.401C960.495 610.401 945.676 610.401 930.255 610.401C930.255 588.613 930.255 566.832 930.252 544.565Z" fill="white"/>
<path d="M368.866 568.832C368.865 582.884 368.865 596.451 368.865 610.433C353.874 610.433 339.225 610.433 323.732 610.433C323.732 604.724 323.722 598.806 323.734 592.888C323.759 580.27 323.709 567.652 323.932 555.036C323.962 553.32 324.688 550.938 326.271 550.017C339.324 542.418 352.65 535.087 365.918 527.699C366.524 527.362 367.36 527.259 368.867 526.821C368.867 540.989 368.867 554.668 368.866 568.832Z" fill="white"/>
<path d="M405.57 701.926C401.235 701.92 397.356 701.92 393 701.92C393 682.684 393 663.902 393 644.23C405.573 644.923 418.555 642.199 431.049 646.453C445.124 651.245 448.32 670.884 436.939 680.556C435.752 681.564 434.464 682.452 432.862 683.67C436.828 689.641 440.692 695.457 445 701.943C439.496 701.943 434.772 702.134 430.082 701.816C428.83 701.731 427.438 700.279 426.539 699.119C424.803 696.879 423.044 694.549 421.881 691.988C419.157 685.992 414.571 685 408.074 686.602C408.074 690.243 408.251 694.101 407.98 697.928C407.883 699.303 406.708 700.6 405.57 701.926ZM421.731 656.887C417.233 656.887 412.736 656.887 408.323 656.887C408.323 662.778 408.323 668.216 408.323 674.101C412.141 674.101 415.638 674.187 419.13 674.079C423.625 673.94 427.162 672.081 428.081 667.361C428.998 662.65 427.297 658.96 421.731 656.887Z" fill="white"/>
<path d="M844.954 645.004C852.475 644.955 859.396 645.326 865.343 649.487C876.693 657.428 876.049 674.934 864.186 682.309C863.597 682.675 863.051 683.104 862.05 683.811C865.898 689.654 869.662 695.37 874 701.958C868.518 701.958 863.872 702.101 859.248 701.858C858.082 701.797 856.7 700.714 855.914 699.731C854.029 697.37 852.438 694.79 850.73 692.297C846.034 685.441 845.691 685.307 836.45 687.038C836.45 691.813 836.45 696.692 836.45 701.817C831.09 701.817 826.229 701.817 821 701.817C821 682.953 821 664.214 821 645.003C828.866 645.003 836.647 645.003 844.954 645.004ZM836.4 659.023C836.4 664.074 836.4 669.126 836.4 674.804C841.771 674.523 846.506 674.609 851.121 673.934C855.224 673.334 857.815 670.239 857.208 666.406C856.75 663.516 854.818 659.035 852.729 658.553C847.57 657.364 841.943 658.066 836.4 659.023Z" fill="white"/>
<path d="M290.078 644C302.494 645.876 311.668 651.601 315.928 663.06C319.807 673.491 318.287 683.534 310.971 692.207C301.484 703.455 282.928 706.289 268.952 698.92C257.212 692.73 251.186 678.162 255.283 664.496C258.596 653.442 266.598 646.911 277.945 644.636C281.724 643.878 285.714 644.14 290.078 644ZM271.84 664.004C271.081 666.69 269.925 669.335 269.636 672.069C268.655 681.319 274.764 689.178 283.456 690.253C292.098 691.323 298.966 687.063 301.569 679.018C304.124 671.123 300.563 661.424 293.587 658.094C285.446 654.209 275.878 656.976 271.84 664.004Z" fill="white"/>
<path d="M924.778 700.8C910.759 704.936 898.035 703.707 887.809 693.089C879.177 684.126 877.728 670.121 883.33 659.262C889.127 648.028 901.798 641.755 915.763 643.207C930.133 644.701 941.219 654.626 943.522 668.059C945.923 682.067 939.217 693.993 924.778 700.8ZM927.958 668.665C927.758 667.986 927.616 667.283 927.348 666.632C923.939 658.323 915.989 654.189 907.622 656.357C899.358 658.497 894.427 666.806 895.766 676.334C896.962 684.84 903.603 690.381 912.436 690.242C923.055 690.075 929.153 682.046 927.958 668.665Z" fill="white"/>
<path d="M714.888 651C720.013 657.14 719.251 662.895 711.837 672.149C719.259 675.91 722.278 682.011 720.506 690.192C718.972 697.276 713.805 701.295 707.294 701.632C694.055 702.316 680.757 701.836 667 701.836C667 685.45 667 669.001 667.559 652.002C683.708 651.301 699.298 651.15 714.888 651ZM704.702 681.723C697.947 675.477 690.008 679.692 682.674 678.447C682.674 683.187 682.674 687.176 682.674 691.259C688.054 691.259 693.004 691.433 697.938 691.213C703.628 690.959 705.526 688.483 704.702 681.723ZM701.044 665.335C703.588 660.207 702.275 656.696 696.906 656.03C692.242 655.45 687.451 655.909 682.766 655.909C682.766 659.991 682.766 663.652 682.766 668.45C689.001 667.539 694.693 666.708 701.044 665.335Z" fill="white"/>
<path d="M809.834 687.604C809.992 697.188 809.972 697.13 801.064 700.159C792.924 702.927 784.695 704.105 776.273 701.703C761.799 697.574 753.585 686.45 754.016 671.752C754.415 658.181 763.676 646.962 777.729 643.987C790.195 641.348 801.472 643.825 811 653.558C807.71 656.441 804.698 659.079 803.045 660.527C796.101 658.853 790.292 656.577 784.408 656.374C781.027 656.257 777.005 658.915 774.19 661.354C768.615 666.183 768.157 676.116 772.457 682.909C776.942 689.994 785.238 692.023 795.969 688.317C795.969 685.734 795.969 682.944 795.969 680.155C795.969 677.554 795.969 674.954 795.969 672.144C800.78 672.144 804.982 672.144 809.83 672.144C809.83 677.284 809.83 682.188 809.834 687.604Z" fill="white"/>
<path d="M353.201 702.855C325.111 700.03 318.473 670.887 331.203 654.424C342.537 639.767 367.637 638.98 381 653.416C377.956 656.216 374.907 659.02 373.301 660.497C366.59 658.742 361.216 656.461 355.724 656.125C349.141 655.722 343.279 660.753 341.434 666.872C339.285 673.999 340.082 680.709 345.711 686.035C351.045 691.083 357.549 691.179 364.133 689.181C365.124 688.88 366.147 686.914 366.219 685.665C366.472 681.267 366.317 676.845 366.317 672.194C370.87 672.194 374.879 672.194 379.811 672.194C379.811 679.669 379.936 687.215 379.676 694.748C379.637 695.869 377.967 697.254 376.735 697.958C369.599 702.035 361.853 703.496 353.201 702.855Z" fill="white"/>
<path d="M237.66 653C246.551 660.668 248.637 670.507 245.84 681.249C242.793 692.955 234.658 700.373 222.554 701.478C211.29 702.507 199.855 701.698 188 701.698C188 685.972 188 670.023 188.593 653.566C205.345 653.039 221.502 653.019 237.66 653ZM230.963 670.221C227.89 658.897 218.988 654.801 203.576 657.699C203.576 668.425 203.576 679.169 203.576 689.86C224.189 691.885 231.676 686.682 230.963 670.221Z" fill="white"/>
<path d="M501.1 702.691C499.259 700.063 497.547 697.556 496.535 694.797C495.45 691.838 493.901 690.546 490.614 690.678C484.66 690.917 478.679 690.56 472.733 690.877C471.197 690.959 468.658 692.416 468.432 693.591C466.754 702.323 461.106 703.917 453.454 702.586C452.243 702.375 450.962 702.556 449 702.556C449.676 700.719 450.102 699.305 450.702 697.968C458.191 681.274 465.798 664.63 473.124 647.865C474.376 645 476.061 644.698 478.798 644.278C486.975 643.023 491.17 645.992 494.268 653.844C500.248 669.003 507.597 683.63 514.363 698.485C514.861 699.577 515.237 700.724 516 702.702C510.791 702.702 506.164 702.702 501.1 702.691ZM484.043 664.769C483.472 663.599 482.901 662.429 481.901 660.38C479.224 667.054 476.931 672.769 474.45 678.955C479.93 678.955 484.6 678.955 489.881 678.955C487.879 674.057 486.135 669.787 484.043 664.769Z" fill="white"/>
<path d="M1007.79 651.79C1007.84 660.809 1008.2 669.84 1007.85 678.844C1007.28 693.648 997.734 702.665 982.906 702.987C965.646 703.362 955.274 695.347 954.344 679.83C953.658 668.4 954.209 656.896 954.209 645C959.091 645 963.777 645 969.361 645C969.361 651.351 969.345 657.823 969.367 664.294C969.383 668.893 969.347 673.497 969.519 678.091C969.804 685.708 973.929 690.08 980.756 690.216C987.902 690.359 992.549 686.061 992.836 678.353C993.151 669.872 992.97 661.373 993.563 652.362C998.678 651.824 1003.24 651.807 1007.79 651.79Z" fill="white"/>
<path d="M655.048 652C655.048 653.536 655.048 655.073 655.048 657.079C645.086 657.079 635.476 657.079 625.517 657.079C625.517 660.785 625.517 664.025 625.517 667.779C634.195 667.779 642.716 667.779 651.472 667.779C651.472 671.73 651.472 675.173 651.472 679.207C642.752 679.207 634.24 679.207 625.41 679.207C625.41 683.059 625.41 686.342 625.41 690.212C635.337 690.212 645.458 690.212 656 690.212C656 694.369 656 697.964 656 702C640.914 702 625.63 702 610 702C610 685.602 610 669.28 610.6 652.521C625.816 652.055 640.432 652.028 655.048 652Z" fill="white"/>
<path d="M594.292 652C604.93 663.546 600.097 681.373 584.786 685.37C578.324 687.057 571.363 686.882 563.907 687.626C563.907 691.985 563.907 696.818 563.907 702C558.322 702 553.412 702 548 702C548 685.583 548 669.345 548.584 652.603C564.21 652.066 579.251 652.033 594.292 652ZM566.788 674.709C570.001 674.617 573.24 674.74 576.423 674.382C581.384 673.824 584.23 670.205 584.014 665.206C583.807 660.399 580.978 657.277 576.038 656.946C572.172 656.687 568.274 656.894 563.788 656.894C563.788 662.51 563.739 667.913 563.872 673.311C563.884 673.801 565.068 674.263 566.788 674.709Z" fill="white"/>
<path d="M1131.83 650.136C1130.67 652.694 1129.52 655.252 1128.5 657.509C1122.22 656.442 1116.48 655.275 1110.64 654.561C1107.98 654.236 1104.86 654.335 1102.44 655.113C1100.22 655.827 1097.4 657.61 1097.19 659.112C1097 660.434 1099.68 662.803 1101.74 663.348C1108.98 665.272 1116.65 666.282 1123.86 668.249C1133.88 670.981 1137.95 677.202 1135.37 684.85C1133.25 691.117 1127.36 694.749 1119.53 696.408C1104.82 699.525 1090.85 697.736 1077 692.075C1078.87 688.633 1080.62 685.426 1082.41 682.127C1087.84 683.581 1092.87 685.333 1098.15 686.219C1102.43 686.938 1107.13 687.099 1111.43 686.562C1113.73 686.275 1116.62 684.21 1117.27 682.517C1117.66 681.484 1114.68 679.11 1112.56 678.273C1109.61 677.107 1106.04 676.836 1102.75 676.14C1099.05 675.357 1095.28 674.71 1091.69 673.685C1076.8 669.426 1073.32 659.85 1084.02 650.016C1100.61 649.963 1116.22 650.05 1131.83 650.136Z" fill="white"/>
<path d="M1066.3 652C1076.26 662.061 1072.65 679.928 1059.5 684.742C1055.91 686.054 1051.97 686.617 1048.14 687.009C1044.47 687.384 1040.73 687.09 1036.35 687.09C1036.35 692.146 1036.35 696.959 1036.35 702C1031 702 1026.33 702 1021 702C1021 685.542 1021 669.367 1021.61 652.685C1036.91 652.119 1051.61 652.059 1066.3 652ZM1046.96 657.039C1043.5 657.039 1040.03 657.039 1036.54 657.039C1036.54 663.299 1036.54 668.871 1036.54 674.997C1039.97 674.997 1043.13 675.085 1046.28 674.978C1052.54 674.765 1055.86 672.081 1056.35 667.004C1056.88 661.541 1054.27 658.535 1046.96 657.039Z" fill="white"/>
<path d="M1116.6 521.093C1123.71 525.029 1130.82 528.964 1138.13 533.165C1138.49 547.01 1139.02 560.596 1138.63 574.166C1138.46 579.785 1140.36 583.805 1147 586.437C1152.22 588.505 1152.41 590.921 1148.61 594.381C1144.52 598.092 1141.14 602.259 1137.71 606.353C1134.96 609.642 1132.43 610.071 1128.08 607.55C1106.17 594.862 1084.04 582.399 1061.99 569.85C1044.91 560.125 1027.83 550.39 1010.6 540.365C1012.65 540.692 1015.05 541.072 1017.03 541.974C1026.33 546.224 1035.53 550.618 1045.38 555.421C1047.05 557.218 1047.72 558.909 1049.23 559.827C1055.3 563.534 1061.58 567.051 1067.88 570.542C1071.32 572.448 1074.3 575.779 1078.8 573.168C1081.59 575.884 1083.66 578.569 1086.56 580.577C1091.4 583.928 1096.43 587.286 1102.08 589.724C1104.23 590.655 1108.3 589.064 1111.73 588.59C1116.66 593.214 1117.03 600.058 1125.27 603.538C1131.84 606.311 1133.97 606.883 1138.06 602C1141.34 598.095 1144.24 594.014 1147.4 589.89C1143.58 586.979 1139.28 583.706 1134.74 580.252C1132.19 581.499 1128.92 583.264 1125.42 584.706C1124.4 585.124 1122.47 584.909 1121.43 584.42C1120.76 584.104 1120.36 582.517 1120.81 581.917C1123.5 578.352 1125.45 573.406 1129.6 571.791C1135.3 569.577 1134.22 566.777 1134.35 563.64C1134.44 561.516 1134.37 559.388 1134.37 556.244C1135.53 557.937 1135.96 558.571 1136.39 559.204C1136.64 559.152 1136.88 559.099 1137.13 559.046C1135.9 554.033 1134.67 549.019 1133.13 542.753C1131.37 545.218 1130.38 546.61 1129.49 547.858C1128.07 547.558 1127 547.331 1124.08 546.712C1124.08 554.672 1124.26 561.88 1123.93 569.075C1123.86 570.609 1122.17 573.162 1120.73 573.381C1117.48 573.877 1115.03 572.435 1116.12 569.481C1117.94 570.117 1119.33 570.673 1121.03 571.346C1121.03 555.641 1121.03 540.451 1121.03 525.369C1093.83 525.369 1067.26 525.369 1039.77 525.369C1041.31 526.951 1042.25 527.926 1043.14 528.955C1043.07 529.009 1042.94 529.113 1042.94 529.113C1040.91 527.84 1038.88 526.567 1036.85 525.294C1039.18 524.6 1041.5 523.328 1043.84 523.304C1060.75 523.131 1077.66 523.21 1095.77 523.211C1102.01 523.318 1107.07 523.62 1112.09 523.415C1113.65 523.351 1115.1 521.906 1116.6 521.093Z" fill="#FF6A00"/>
<path d="M362.175 749.202C362.187 745.011 362.187 741.316 362.187 737.221C364.353 737.221 366.02 737.221 368 737.221C368 746.308 368 755.234 368 765C357.618 764.027 356.57 753.343 349.086 749.062C349.086 754.126 349.086 759.02 349.086 764.384C346.746 764.539 345.07 764.649 343 764.786C343 755.469 343 746.554 343 736C345.671 737.336 348.19 737.939 349.696 739.484C353.048 742.919 355.889 746.828 358.946 750.538C360.654 752.611 361.816 752.629 362.175 749.202Z" fill="white"/>
<path d="M426.001 761.474C426 753.281 426 745.561 426 736C429.063 737.504 431.577 738.057 433.039 739.589C436.985 743.721 440.483 748.269 445.147 753.83C445.147 747.47 445.147 742.649 445.147 737.301C447.283 737.152 448.923 737.037 451 736.892C451 746.257 451 755.135 451 765C440.715 763.803 439.589 753.205 432.434 748.722C432.434 753.783 432.434 758.852 432.434 764.229C429.505 764.286 426.466 766.811 426.001 761.474Z" fill="white"/>
<path d="M624.147 751.788C627.816 758.069 626.005 762.861 618.995 763.665C613.202 764.329 607.27 763.801 601 763.801C601 754.87 601 745.891 601 736.19C606.327 736.19 611.835 735.689 617.211 736.314C624.238 737.13 626.241 741.704 622.401 748.499C622.535 749.824 623.341 750.806 624.147 751.788ZM619.058 745.199C618.911 744.526 618.763 743.853 617.931 742.564C614.462 741.928 610.993 741.292 607.279 740.611C607.279 743.529 607.279 745.335 607.279 748.422C611.489 747.286 615.051 746.326 619.058 745.199ZM606.433 755.716C606.185 758.232 606.911 760.074 609.871 759.446C613.106 758.759 616.281 757.762 619.423 756.725C619.645 756.652 619.646 754.538 619.306 754.392C617.16 753.47 614.893 752.282 612.659 752.267C610.529 752.253 606.917 750.282 606.433 755.716ZM621.497 743.956C621.787 744.259 622.078 744.562 622.369 744.866C622.496 744.745 622.739 744.527 622.731 744.519C622.46 744.198 622.165 743.898 621.497 743.956Z" fill="white"/>
<path d="M496.719 757.324C496.059 759.852 495.782 762.106 495.464 764.689C493.729 764.689 492.034 764.689 490 764.689C490 755.496 490 746.394 490 737.017C493.866 737.017 497.43 736.972 500.993 737.029C506.031 737.109 510.801 737.886 513.087 743.157C515.084 747.761 513.891 751.175 508.661 756.318C509.483 757.591 510.341 758.904 511.181 760.226C511.934 761.41 512.667 762.606 513.612 764.122C509.721 765.847 507.019 765.063 505.132 761.477C503.449 758.277 501.208 756.004 496.719 757.324ZM496.523 742.244C496.204 745.273 495.885 748.301 495.523 751.737C498.553 751.737 500.973 752.368 502.714 751.567C504.621 750.69 507.089 748.508 507.113 746.863C507.137 745.284 504.585 743.24 502.708 742.205C501.327 741.444 499.21 741.98 496.523 742.244Z" fill="white"/>
<path d="M236.449 737.099C240.1 736.981 243.303 737.007 246.505 737C251.389 736.989 255.832 737.994 258.001 742.931C260.24 748.028 258.679 752.222 253.696 755.626C255.444 758.422 257.096 761.063 258.947 764.024C255.639 765.549 252.957 765.574 251.043 762.005C250.629 761.232 250.201 760.288 249.506 759.875C247.551 758.713 245.453 757.786 243.411 756.766C242.686 758.494 241.909 760.204 241.262 761.96C241.031 762.586 241.113 763.326 241.017 764.41C239.248 764.41 237.594 764.41 236 764.41C236 755.31 236 746.269 236.449 737.099ZM241.162 745.811C240.261 750.75 242.504 752.952 247.216 751.617C249.326 751.019 251.644 749.092 252.532 747.164C252.976 746.198 250.515 742.537 249.202 742.446C246.526 742.26 242.266 739.355 241.162 745.811Z" fill="white"/>
<path d="M575.109 760.41C569.161 764.96 564.105 765.771 551 764.387C551 755.328 551 746.206 551 736C556.985 736.307 563.253 735.705 569.02 737.126C579.324 739.665 582.165 751.061 575.109 760.41ZM557.068 749.459C557.068 752.668 557.068 755.878 557.068 759.32C562.957 759.783 568.78 760.666 571.568 755.082C572.905 752.404 572.615 747.669 571.053 745.064C568.026 740.015 562.448 741.151 557.086 741.636C557.086 744.137 557.086 746.278 557.068 749.459Z" fill="white"/>
<path d="M865 751.033C866.085 741.52 870.914 736.583 879.255 736.041C887.306 735.518 893.932 740.019 895.594 747.141C897.563 755.576 892.182 763.335 883.401 764.722C873.439 766.295 866.267 761.123 865 751.033ZM875.341 742.879C870.168 747.919 869.849 753.792 874.544 757.536C878.227 760.474 883.056 760.453 886.534 757.484C889.799 754.697 890.57 749.646 888.314 745.818C885.783 741.523 882.097 740.506 875.341 742.879Z" fill="white"/>
<path d="M728.556 739.218C733.913 740.094 735.192 744.419 735.818 748.867C736.569 754.211 735.063 759.6 730.064 761.421C723.574 763.785 716.5 764.459 709 766C709 755.268 709 746.156 709 736C715.055 736.591 720.988 737.171 727.238 738.368C727.889 739.064 728.222 739.141 728.556 739.218ZM726.027 743.06C722.312 742.311 718.598 741.562 714.747 740.785C714.747 747.737 714.747 753.367 714.747 759.244C720.162 759.633 725.415 760.752 728.539 755.142C730.864 750.969 730.283 746.913 726.027 743.06Z" fill="white"/>
<path d="M467.928 759.645C472.735 759.735 477.079 759.735 481.319 759.735C482.728 763.473 482.077 765.135 478.176 764.991C472.6 764.787 467.012 764.939 461 764.939C461 755.549 461 746.541 461 737C467.479 737 474.016 737 481.008 737C481.134 738.186 481.295 739.7 481.524 741.85C476.546 741.85 471.936 741.85 466.925 741.85C466.827 744.106 466.754 745.782 466.662 747.904C471.024 747.904 474.995 747.904 478.953 747.904C480.579 752.168 479.117 753.392 475.329 753.078C472.598 752.851 469.834 753.034 466.189 753.034C466.713 755.712 467.09 757.633 467.928 759.645Z" fill="white"/>
<path d="M765.809 738.9C766.626 740.037 767.443 741.174 767.833 742.742C767.435 743.36 767.465 743.549 767.495 743.738C767.613 743.474 767.731 743.211 767.849 742.947C769.543 744.471 771.308 745.919 772.908 747.543C774.229 748.883 775.354 750.431 777.585 753.11C777.88 746.565 778.103 741.612 778.328 736.62C782.254 735.23 784.116 736.021 783.994 740.591C783.785 748.424 783.937 756.266 783.937 766C780.975 764.414 778.48 763.804 777.069 762.181C773.42 757.983 770.249 753.339 766.654 748.261C765.885 747.485 765.35 747.322 764.815 747.158C764.772 747.624 764.73 748.089 764.687 748.555C764.85 752.34 764.913 756.133 765.199 759.908C765.545 764.467 763.723 765.889 759.143 764.273C759.143 759.945 759.143 755.467 759.556 750.418C761.257 749.065 762.544 748.283 763.832 747.501C763.462 746.998 763.093 746.496 762.723 745.994C761.585 745.846 760.447 745.699 759.309 745.551C759.227 743.409 759.25 741.255 759.035 739.126C758.749 736.291 760.221 735.737 762.949 736.608C764.225 737.793 765.017 738.347 765.809 738.9Z" fill="white"/>
<path d="M1028.25 739.84C1034.08 746.597 1034.53 754.373 1029.68 759.499C1023.6 765.924 1013.84 766.844 1007.29 761.609C1001.29 756.81 1000.27 748.458 1004.86 741.819C1009.62 734.943 1019.28 734.004 1028.25 739.84ZM1019.86 759.61C1026.32 756.228 1028.28 751.076 1025.17 745.65C1022.53 741.058 1016.15 739.388 1012.2 743.168C1009.97 745.311 1008.44 749.302 1008.49 752.428C1008.57 757.077 1012.47 759.282 1017.06 760.59C1017.76 760.378 1018.46 760.165 1019.86 759.61Z" fill="white"/>
<path d="M277.235 752.826C271.477 752.307 272.816 755.638 273.096 759.022C278.078 759.022 282.907 759.022 288 759.022C288 761.019 288 762.45 288 764C280.899 764 274.11 764 267 764C267 755.036 267 746.352 267 737.047C273.028 737.047 278.973 736.869 284.887 737.207C285.978 737.269 286.944 739.416 287.967 740.601C287.62 741.047 287.273 741.493 286.925 741.939C282.414 741.939 277.903 741.939 273.13 741.939C273.13 744.106 273.13 745.753 273.13 747.724C277.233 747.724 281.233 747.724 285.271 747.724C286.897 751.424 286.092 753.174 281.968 752.857C280.566 752.749 279.148 752.832 277.235 752.826Z" fill="white"/>
<path d="M168.278 536.152C173.486 532.534 178.678 529.379 184.417 526.623C184.906 541.284 184.849 555.547 184.791 569.809C184.075 568.956 182.785 568.122 182.731 567.246C182.157 557.953 181.644 548.656 181.428 539.356C181.361 536.451 182.245 533.534 182.741 530.315C171.138 532.828 170.23 539.434 169.85 546.033C169.498 552.159 168.493 558.511 170.155 564.379C171.641 569.631 170.59 574.618 170.655 579.689C170.678 581.466 168.459 583.905 166.326 584.935C158.888 588.526 158.787 588.319 162.944 593.952C166.225 598.4 169.348 602.915 173.101 608.186C180.315 603.898 186.737 599.807 193.542 596.119C199.337 592.978 205.573 590.302 212.098 587.483C200.237 594.658 187.945 601.824 175.441 608.771C174.509 609.289 171.216 608.688 170.44 607.854C164.947 601.952 159.826 595.854 154.343 589.538C156.766 588.004 158.596 586.229 160.994 585.446C167.796 583.225 168.407 579.04 168.359 574.316C168.23 561.75 168.282 549.183 168.278 536.152Z" fill="#EC7D31"/>
<path d="M319.645 756.586C320.722 758.011 321.746 759.62 322.897 759.724C326.655 760.062 330.459 759.851 334.309 759.851C335.607 763.238 335.317 765.109 331.333 764.995C325.669 764.833 319.997 764.954 314 764.954C314 755.481 314 746.459 314 737C320.614 737 327.091 737 334.02 737C334.085 738.487 334.151 739.979 334.229 741.775C329.371 741.775 324.913 741.775 319.977 741.775C319.853 743.708 319.745 745.393 319.598 747.699C323.961 747.699 328.003 747.699 332.2 747.699C333.006 751.295 333.015 753.508 328.901 753.045C326.85 752.814 324.67 752.671 322.708 753.166C321.529 753.463 320.658 755.065 319.645 756.586Z" fill="white"/>
<path d="M381.138 493.045C381.394 492.337 381.906 491.409 382.822 490.874C395.737 483.342 408.694 475.853 421.664 468.375C443.647 455.7 465.564 442.959 487.673 430.41C498.382 424.332 509.668 418.83 520.294 412.675C526.328 409.18 531.13 404.447 537.276 401.097C542.599 398.195 549.036 396.456 555.476 394.283C541.545 402.657 527.182 411.015 512.677 419.232C470.615 443.061 428.499 466.835 386.391 490.617C384.857 491.484 383.188 492.214 381.138 493.045Z" fill="#EC7D31"/>
<path d="M401.863 760.742C395.069 766.758 384.797 766.268 379.427 760.103C374.578 754.535 374.922 745.231 380.158 740.286C386.352 734.438 395.904 734.583 402 740.668C400.703 744.083 398.91 744.5 395.682 742.519C392.25 740.413 387.946 740.504 385.523 743.75C383.66 746.247 382.319 750.382 383.03 753.209C383.669 755.751 387.097 758.433 389.864 759.391C394.255 760.911 396.174 758.887 396.416 754.078C396.468 753.039 396.557 752.002 396.654 750.596C398.292 750.431 399.779 750.281 401.912 750.067C401.912 753.729 401.912 757.021 401.863 760.742Z" fill="white"/>
<path d="M527.631 755.743C528.933 757.217 530.151 758.837 531.519 758.983C535.131 759.367 538.809 759.113 542.746 759.113C542.746 760.809 542.746 762.279 542.746 764C535.78 764 529.041 764 522 764C522 754.723 522 745.703 522 736.043C528.063 736.043 534.134 735.872 540.178 736.211C541.187 736.268 542.077 738.544 544 741.09C537.492 741.09 532.867 741.09 528.009 741.09C528.009 743.411 528.009 745.127 528.009 747.248C532.039 747.248 536.005 747.248 540.154 747.248C541.092 750.562 541.345 752.829 537.058 752.388C534.978 752.173 532.786 751.969 530.79 752.423C529.587 752.696 528.663 754.243 527.631 755.743Z" fill="white"/>
<path d="M1059.5 748.018C1059.39 746.887 1059.29 745.757 1059.78 744.232C1061.92 743.797 1063.46 743.756 1065 743.716C1065 750.25 1065 756.785 1065 763.38C1059.29 765.723 1057.71 760.878 1055.11 758.006C1052.44 755.06 1049.92 751.979 1046.48 747.955C1046.48 753.871 1046.48 758.673 1046.48 763.924C1044.04 763.924 1042.27 763.924 1040.01 763.924C1040.01 755.625 1039.95 747.556 1040.09 739.489C1040.11 738.601 1041.25 736.993 1041.85 737C1043.26 737.016 1045.11 737.41 1045.99 738.358C1049.39 742.058 1052.48 746.036 1055.7 749.903C1056.48 750.849 1057.31 751.765 1058.71 753.385C1058.96 751.471 1059.06 750.648 1059.51 749.378C1059.73 748.627 1059.61 748.323 1059.5 748.018ZM1061.68 761.011C1062.04 760.444 1062.39 759.878 1062.75 759.311C1062.46 759.172 1062.17 759.033 1061.88 758.893C1061.67 759.448 1061.45 760.002 1061.68 761.011ZM1058.6 753.548C1058.6 753.969 1058.59 754.39 1058.61 754.81C1058.61 754.822 1058.94 754.815 1059.12 754.817C1059.13 754.397 1059.13 753.978 1058.6 753.548Z" fill="white"/>
<path d="M934.12 745.478C934.177 748.512 934.039 751.056 934.328 753.55C934.763 757.313 937.168 759.458 940.919 759.429C944.768 759.399 946.894 757.099 947.052 753.252C947.17 750.372 947.134 747.486 947.149 744.603C947.162 741.929 947.152 739.254 947.152 736.275C949.276 736.275 950.991 736.275 952.888 736.275C952.888 742.61 953.189 748.726 952.804 754.8C952.408 761.07 947.707 764.8 940.907 764.992C933.901 765.19 928.743 761.477 928.24 755.053C927.767 748.998 928.139 742.878 928.139 736.298C930.023 736.204 931.72 736.12 934.117 736C934.117 739.301 934.117 742.133 934.12 745.478Z" fill="white"/>
<path d="M1102.39 751.693C1103.71 757.64 1101.13 761.168 1094.11 761.898C1089.61 762.366 1084.8 761.717 1080.25 761.096C1075.8 760.49 1074.79 758.427 1077.48 755.747C1082 756.351 1086.33 757.153 1090.72 757.387C1092.18 757.465 1093.77 756.084 1095.3 755.37C1094.08 754.408 1093.08 753.066 1091.59 752.564C1088.48 751.519 1084.67 751.401 1081.98 749.996C1079.47 748.692 1076.53 746.203 1076.55 744.249C1076.57 742.008 1078.98 739.121 1081.52 737.694C1086.27 735.022 1094.47 735.684 1101.28 738.467C1100.77 739.731 1100.23 741.054 1099.74 742.259C1095.64 741.765 1091.93 741.059 1088.2 741.002C1086.82 740.981 1085.4 742.485 1084 743.293C1085.15 744.276 1086.06 745.611 1087.5 746.178C1092.28 748.057 1097.26 749.66 1102.39 751.693Z" fill="white"/>
<path d="M633.009 752.667C633 747.148 633 742.117 633 736.532C635.012 736.38 636.616 736.258 639.078 736.072C639.078 741.748 639.071 746.909 639.08 752.071C639.088 756.55 641.093 759.528 645.546 759.448C649.87 759.369 651.354 756.096 651.394 752.042C651.445 747.014 651.406 741.986 651.406 736.457C653.279 736.299 654.897 736.162 656.81 736C656.81 742.982 657.327 749.62 656.656 756.126C656.056 761.937 650.527 765.326 644.15 764.975C637.472 764.607 634.204 761.138 633.009 752.667Z" fill="white"/>
<path d="M210.348 736.003C214.122 736.263 217.483 736.124 220.626 736.867C225.73 738.075 228.31 742.131 227.97 747.351C227.669 751.981 224.314 755.419 219.15 756.076C216.305 756.438 213.411 756.428 210.353 756.595C210.129 759.144 209.93 761.405 209.702 764C207.783 764 206.078 764 204 764C204 754.783 204 745.757 204 736C205.95 736 207.894 736 210.348 736.003ZM209.945 748.069C210.485 753.764 214.72 751.049 217.367 750.862C220.596 750.634 222.347 748.052 221.343 745.095C219.421 739.433 214.628 741.266 209.944 741.418C209.944 743.535 209.944 745.284 209.945 748.069Z" fill="white"/>
<path d="M856.696 750.236C858.131 753.229 860.547 756.457 859.889 758.799C859.187 761.297 855.818 764.161 853.184 764.696C849.365 765.472 845.107 764.603 841.138 763.869C837.413 763.181 837.252 760.797 839.359 758.226C843.104 758.841 846.712 759.688 850.354 759.881C851.511 759.943 852.757 758.263 853.962 757.38C852.96 756.295 852.149 754.763 850.915 754.22C848.313 753.075 845.114 753.006 842.866 751.449C840.768 749.996 838.303 747.171 838.333 744.982C838.367 742.441 840.531 738.247 842.499 737.754C847.108 736.597 852.164 737.036 857.007 737.345C857.66 737.387 858.128 740.401 858.917 742.736C854.79 742.067 851.996 741.204 849.244 741.325C847.658 741.395 846.141 743.054 844.593 743.998C845.789 745.143 846.804 746.689 848.221 747.344C850.796 748.535 853.61 749.197 856.696 750.236Z" fill="white"/>
<path d="M238 652.543C221.558 652.947 205.015 652.969 187.959 653C186.14 644.03 186.176 643.742 194.712 644.085C205.7 644.527 216.721 644.999 227.624 646.379C231.215 646.834 234.484 650.152 238 652.543Z" fill="#FF6A00"/>
<path d="M793.013 744.317C795.882 738.273 801.222 736.563 808.102 737.09C810.053 738.849 813.496 739.004 811.581 742.259C809.788 742.081 807.659 741.228 806.271 741.865C803.392 743.188 799.534 744.82 798.621 747.219C797.588 749.931 798.307 754.446 800.196 756.646C801.896 758.627 806.178 758.75 809.395 759.186C810.073 759.278 811.462 757.274 811.831 756.043C812.31 754.449 812.096 752.663 812.198 750.61C813.984 750.533 815.511 750.467 816.849 750.409C817.145 750.915 817.328 751.079 817.308 751.215C816.735 755.159 820.393 760.236 815.038 762.852C808.497 766.047 801.799 766.064 795.71 760.25C794.774 758.882 794.061 758.163 793.349 757.444C792.725 754.253 792.101 751.063 792 747.327C792.686 745.96 792.85 745.138 793.013 744.317Z" fill="white"/>
<path d="M654.884 651.471C640.093 651.938 625.418 651.966 610.239 652C609.505 649.817 609.275 647.627 609 645C624.478 645 639.326 645 655 645C655 647.026 655 649.029 654.884 651.471Z" fill="#FF6A00"/>
<path d="M715 651.094C699.209 651.609 683.322 651.763 666.987 652C666.381 649.741 666.224 647.4 666 644.075C670.382 644.075 674.282 644.072 678.182 644.076C685.439 644.083 692.707 643.842 699.948 644.184C705.614 644.451 711.14 645.691 715 651.094Z" fill="#FF6A00"/>
<path d="M1066 651.452C1051.28 651.86 1036.43 651.92 1021.06 652C1020.37 649.761 1020.19 647.502 1020 645.155C1031.94 645.155 1043.36 644.665 1054.7 645.428C1058.53 645.686 1062.15 649.121 1066 651.452Z" fill="#FF6A00"/>
<path d="M595 651.506C580.076 651.905 565.053 651.94 549.538 652C548.412 644.088 548.412 644.08 556.066 644.069C563.396 644.059 570.732 643.888 578.055 644.125C584.415 644.33 590.427 645.862 595 651.506Z" fill="#FF6A00"/>
<path d="M978.585 736.066C982.683 735.653 983.754 737.172 982.514 740.795C979.828 740.987 977.017 741.188 973.702 741.426C973.702 749.063 973.702 756.44 973.702 764C971.416 764 969.663 764 967.341 764C967.341 756.374 967.341 749.011 967.341 741.276C964.1 741.276 961.421 741.276 958.323 741.276C958.209 739.44 958.118 737.972 958 736.062C964.992 736.062 971.541 736.062 978.585 736.066Z" fill="white"/>
<path d="M910.721 764.993C907.934 765 905.651 765 903 765C903 755.575 903 746.438 903 737C904.826 737 906.493 737 908.77 737C908.77 744.557 908.77 751.926 908.77 759.739C913.738 759.739 918.105 759.739 922.69 759.739C922.797 761.548 922.877 762.899 923 764.987C918.893 764.987 915.06 764.987 910.721 764.993Z" fill="white"/>
<path d="M696.13 759.815C698.46 759.812 700.266 759.812 704 759.812C702.282 762.243 701.399 764.703 700.355 764.768C694.349 765.143 688.305 764.951 682 764.951C682 755.312 682 746.325 682 737C683.885 737 685.605 737 687.951 737C687.951 744.572 687.951 751.936 687.951 759.818C690.915 759.818 693.26 759.818 696.13 759.815Z" fill="white"/>
<path d="M1129.72 649.932C1113.83 650.033 1098.22 649.947 1082 649.823C1084.54 648.024 1087.37 645.421 1090.9 644.657C1102.83 642.076 1114.88 642.519 1126.53 645.925C1128.45 646.486 1132.24 646.739 1129.72 649.932Z" fill="#FF6A00"/>
<path d="M660.844 342.291C662.42 342.322 664.421 342.341 665.878 343.021C668.391 344.195 670.465 345.889 672.899 347.175C687.583 354.931 702.646 362.304 716.913 370.471C725.877 375.603 733.671 381.899 742.007 388.015C729.481 381.386 716.877 374.478 704.414 367.428C689.887 359.209 675.482 350.866 660.844 342.291Z" fill="#EC7D31"/>
<path d="M720.918 392.34C719.335 392.989 717.162 394.03 714.984 394.036C675.893 394.136 636.802 394.111 597.085 394.112C598.541 393.52 600.62 392.42 602.704 392.413C641.912 392.282 681.119 392.28 720.918 392.34Z" fill="#3A4345"/>
<path d="M667.008 759.58C667 751.789 667 744.485 667 737C669.276 737 671.027 737 673 737C673 746.239 673 755.152 673 764.603C671.241 764.724 669.513 764.844 667.255 765C667.164 763.12 667.09 761.593 667.008 759.58Z" fill="white"/>
<path d="M989.891 764.906C988.939 764.356 988.068 763.847 988.063 763.331C987.979 754.632 988.003 745.931 988.003 737C990.478 737 992.335 737 994.951 737C994.951 745.468 994.853 753.643 994.999 761.816C995.057 765.098 992.962 765.167 989.891 764.906Z" fill="white"/>
<path d="M744.999 765C744.029 755.763 743.528 746.625 743 737C745.708 737 747.556 737 749.976 737C749.976 745.68 750.102 754.202 749.779 762.708C749.746 763.555 746.97 764.304 744.999 765Z" fill="white"/>
<path d="M852.501 450.947C859.673 451.074 864.733 454.027 870.12 457.799C879.03 464.039 889.517 468.981 899.169 474.636C905.265 478.208 911.045 482.087 916.978 485.818C920.699 488.158 924.441 490.479 928.19 493.162C921.43 489.912 914.534 486.429 907.897 482.684C889.428 472.262 871.066 461.732 852.501 450.947Z" fill="#EC7D31"/>
<path d="M762.878 400.219C767.18 399.312 769.874 401.075 773.146 403.229C781.954 409.026 791.362 414.317 800.72 419.621C812.087 426.064 823.696 432.263 835.078 438.691C837.257 439.921 838.87 441.722 840.785 443.606C831.66 438.966 822.416 434.059 813.346 428.976C796.52 419.546 779.795 410.013 762.878 400.219Z" fill="#EC7D31"/>
<path d="M212.92 587.55C216.864 583.267 221.796 579.593 228.019 576.518C240.046 570.576 251.213 563.652 262.909 557.317C270.961 552.955 279.304 548.899 287.997 544.768C280.427 549.564 272.475 554.394 264.309 559.009C247.389 568.57 230.355 578.016 212.92 587.55Z" fill="#EC7D31"/>
<path d="M412.482 736C414.315 737.059 416.743 738.101 416.788 739.222C417.117 747.323 416.965 755.441 416.965 764C414.566 764 412.546 764 410.014 764C410.014 755.439 409.949 747.168 410.1 738.9C410.118 737.931 411.32 736.979 412.482 736Z" fill="white"/>
<path d="M556.287 394.344C561.451 389.14 567.568 384.402 575.559 381.033C581.272 378.624 586.463 375.493 591.78 372.573C598.6 368.826 605.284 364.94 612.101 361.19C613.076 360.653 614.464 360.543 616.166 360.259C606.685 366.066 596.757 371.909 586.695 377.618C576.778 383.244 566.725 388.734 556.287 394.344Z" fill="#EC7D31"/>
<path d="M1007.92 651.519C1003.22 651.934 998.601 651.95 993.492 652C993 649.815 993 647.597 993 645C997.979 645 1002.74 645 1008 645C1008 647.11 1008 649.115 1007.92 651.519Z" fill="#FF6A00"/>
<path d="M969.427 517.121C971.017 517.096 973.137 516.972 974.463 517.686C986.344 524.086 998.102 530.616 1009.82 537.185C1010.46 537.545 1010.43 538.591 1010.57 539.698C996.814 532.523 983.201 524.966 969.427 517.121Z" fill="#EC7D31"/>
<path d="M288.79 544.818C290.662 543.113 292.757 541.132 295.343 539.632C305.169 533.932 315.129 528.363 325.107 522.814C326.404 522.094 328.099 521.781 330.087 521.285C322.008 526.33 313.513 531.431 304.87 536.383C299.782 539.298 294.457 541.977 288.79 544.818Z" fill="#EC7D31"/>
<path d="M928.261 493.814C929.529 493.584 931.355 493.238 932.3 493.775C942.225 499.413 952.025 505.178 961.81 510.957C962.777 511.528 963.412 512.421 964.232 513.515C958.893 511.063 953.437 508.348 948.174 505.435C941.505 501.743 934.992 497.891 928.261 493.814Z" fill="#EC7D31"/>
<path d="M344.069 513.758C351.156 507.058 359.605 501.212 371.209 497.981C362.634 503.231 353.578 508.478 344.069 513.758Z" fill="#EC7D31"/>
<path d="M293 750.248C297.023 750 301.046 750.723 305 750C305 752.108 305 753.36 305 754.881C302.051 755 296.017 755 293 755C293 750.367 293 751.198 293 750.248Z" fill="white"/>
<path d="M639.654 347.432C640.735 345.961 642.01 344.238 643.832 342.957C645.789 341.581 648.37 340.726 650.482 339.458C654.716 336.918 657.48 337.354 660.756 341.649C656.4 339.371 652.651 339.825 648.729 342.686C646.205 344.527 642.993 345.83 639.654 347.432Z" fill="#EC7D31"/>
<path d="M742.154 388.647C744.297 388.89 747.013 389.027 748.796 390.071C753.633 392.906 758.075 396.125 762.685 399.541C755.897 396.245 749.099 392.6 742.154 388.647Z" fill="#EC7D31"/>
<path d="M621.991 357.475C624.821 352.037 630.73 349.043 638.681 347.513C633.592 350.818 628.008 354.117 621.991 357.475Z" fill="#EC7D31"/>
<path d="M811.357 742.6C813.116 738.889 809.563 738.727 808 737C811.069 737.689 814.219 738.728 818 739.975C815.881 743.347 814.714 745.595 811.357 742.6Z" fill="white"/>
<path d="M331.006 521.234C334.644 518.739 338.723 516.188 343.279 513.687C339.652 516.217 335.549 518.697 331.006 521.234Z" fill="#EC7D31"/>
<path d="M372.149 497.924C374.169 496.39 376.627 494.809 379.595 493.255C377.598 494.814 375.093 496.345 372.149 497.924Z" fill="#EC7D31"/>
<path d="M845.164 446.821C848.52 446.391 851.665 446.743 852.446 450.336C850.031 449.512 847.688 448.313 845.164 446.821Z" fill="#EC7D31"/>
<path d="M1064.98 743.405C1063.24 743.928 1061.59 743.971 1059.46 744C1058.89 743.051 1058.81 742.117 1059.45 740.888C1061.77 740.395 1063.34 740.198 1064.92 740C1064.98 740.975 1065.03 741.951 1064.98 743.405Z" fill="white"/>
<path d="M1064.96 739.178C1063.31 739.652 1061.74 739.844 1059.58 740C1058.91 739.546 1058.84 739.128 1059.28 738.219C1060.1 737.282 1060.42 736.836 1060.73 736.39C1063.08 735.804 1065.34 735.346 1064.96 739.178Z" fill="white"/>
<path d="M759.009 746.162C760.343 745.879 761.572 746.023 762.802 746.167C763.201 746.658 763.601 747.149 764 747.64C762.609 748.404 761.217 749.168 759.465 750C759.038 748.908 758.971 747.748 759.009 746.162Z" fill="white"/>
<path d="M624 752C623.329 751.295 622.536 750.204 622 749C622.798 749.796 623.338 750.705 624 752Z" fill="white"/>
<path d="M964.298 514.151C965.887 514.601 967.607 515.353 969.334 516.467C967.704 516.037 966.067 515.245 964.298 514.151Z" fill="#EC7D31"/>
<path d="M840.819 444.225C842.101 444.564 843.496 445.2 844.937 446.182C843.633 445.859 842.282 445.19 840.819 444.225Z" fill="#EC7D31"/>
<path d="M617.731 359.913C618.451 359.106 619.559 358.232 621.123 357.422C620.426 358.272 619.273 359.059 617.731 359.913Z" fill="#EC7D31"/>
<path d="M832 763C832.647 763.37 833.321 764.029 834 765C833.346 764.638 832.686 763.963 832 763Z" fill="white"/>
<path d="M765 739C764.414 738.765 763.716 738.125 763 737C763.617 737.208 764.252 737.901 765 739Z" fill="white"/>
<path d="M792.961 744C793.11 744.766 792.835 745.79 792.047 747C791.869 746.21 792.204 745.234 792.961 744Z" fill="white"/>
<path d="M765.211 749C764.965 748.471 764.99 747.735 765.015 747C765.331 747.258 765.647 747.516 766 748.167C765.853 748.638 765.667 748.716 765.211 749Z" fill="white"/>
<path d="M1059.06 748C1059.8 748.089 1060.19 748.52 1059.91 749C1059.06 748.814 1058.89 748.578 1059.06 748Z" fill="white"/>
<path d="M1060.94 737C1061.15 737.28 1060.81 737.576 1060.05 738C1059.88 737.757 1060.13 737.387 1060.94 737Z" fill="white"/>
<path d="M1115.71 569.399C1115.03 572.435 1117.48 573.877 1120.73 573.381C1122.17 573.162 1123.86 570.609 1123.93 569.075C1124.26 561.88 1124.08 554.672 1124.08 546.712C1127 547.331 1128.07 547.558 1129.49 547.858C1130.38 546.61 1131.37 545.218 1133.13 542.753C1134.67 549.019 1135.9 554.033 1137.13 559.046C1136.88 559.099 1136.64 559.152 1136.39 559.204C1135.96 558.571 1135.53 557.937 1134.37 556.244C1134.37 559.388 1134.44 561.516 1134.35 563.64C1134.22 566.777 1135.3 569.577 1129.6 571.791C1125.45 573.406 1123.5 578.352 1120.81 581.917C1120.36 582.517 1120.76 584.104 1121.43 584.42C1122.47 584.909 1124.4 585.124 1125.42 584.706C1128.92 583.264 1132.19 581.499 1134.74 580.252C1139.28 583.706 1143.58 586.979 1147.4 589.89C1144.24 594.014 1141.34 598.095 1138.06 602C1133.97 606.883 1131.84 606.311 1125.27 603.538C1117.03 600.058 1116.66 593.214 1111.73 588.59C1108.3 589.064 1104.23 590.655 1102.08 589.724C1096.43 587.286 1091.4 583.928 1086.56 580.577C1083.66 578.569 1081.59 575.884 1078.8 573.168C1074.3 575.779 1071.32 572.448 1067.88 570.542C1061.58 567.051 1055.3 563.534 1049.23 559.827C1047.72 558.909 1047.05 557.218 1045.81 555.563C1046.81 554.995 1048.47 555.034 1049.1 554.446C1052.3 551.457 1053.86 547.296 1059.98 546.445C1060.57 546.363 1060.71 544.457 1061.38 543.012C1061.71 542.626 1062.34 542.628 1062.61 542.881C1063.98 543.287 1065.09 543.441 1066.5 543.86C1068.03 544.162 1069.25 544.198 1070.44 544.314C1070.4 544.394 1070.37 544.228 1070.41 544.577C1073.53 547.821 1075.84 551.571 1082.06 551.043C1082.01 551.125 1082.01 550.944 1082.07 551.269C1082.89 551.792 1083.66 551.99 1084.32 552.208C1084.23 552.23 1084.39 552.143 1084.38 552.508C1086.59 553.884 1088.81 554.895 1091.01 555.969C1090.98 556.033 1090.93 555.901 1090.99 556.187C1091.49 556.608 1091.93 556.744 1092.29 556.882C1092.2 556.885 1092.32 556.792 1092.33 557.155C1093.26 561.078 1094.16 564.638 1094.77 567.031C1100.46 567.262 1106.56 567.509 1112.59 567.789C1112.51 567.822 1112.64 567.726 1112.65 568.072C1113.61 568.766 1114.55 569.114 1115.54 569.438C1115.59 569.414 1115.71 569.399 1115.71 569.399ZM1089.73 577.019C1089.37 577.282 1089 577.546 1088.64 577.809C1088.78 577.924 1089.04 578.143 1089.05 578.137C1089.44 577.891 1089.8 577.625 1089.73 577.019ZM1128.85 565.498C1129.21 565.235 1129.58 564.971 1129.94 564.708C1129.8 564.594 1129.65 564.48 1129.51 564.366C1129.14 564.629 1128.78 564.893 1128.85 565.498Z" fill="#FF6A00"/>
<path d="M462.308 415.438C468.651 401.462 475.514 387.446 482.199 373.381C486.725 363.86 491.001 354.272 495.296 344.286C497.498 342.558 499.794 341.258 502.51 339.944C492.389 350.859 490.373 364.357 483.639 376.436C478.967 384.816 474.797 393.353 470.312 401.793C467.89 406.35 465.279 410.851 462.308 415.438Z" fill="#EA9244"/>
<path d="M433.891 432.922C434.527 431.838 435.658 430.763 437.949 428.583C408.114 428.583 379.738 428.583 350.836 428.462C352.412 427.301 354.514 426.262 357.029 425.165C359.517 425.787 361.587 427.042 363.671 427.055C385.684 427.198 407.7 427.143 429.715 427.142C430.997 427.142 432.425 426.864 433.531 427.197C435.689 427.846 437.667 428.837 439.719 429.686C437.941 430.767 436.163 431.849 433.891 432.922Z" fill="#EA9244"/>
<path d="M514.331 342.905C510.901 351.453 507.175 360.163 503.15 368.793C498.836 378.045 494.195 387.21 489.828 396.448C489.257 397.657 486.205 399.958 491.89 399.792C491.972 403.478 488.803 402.903 485.077 402.477C485.273 401.141 485.154 400.009 485.624 399.04C494.01 381.774 502.447 364.521 510.944 347.286C511.678 345.797 512.905 344.446 514.331 342.905Z" fill="#EA9244"/>
<path d="M373.454 415.389C397.65 415.413 421.47 415.495 445.29 415.581C449.119 415.595 452.947 415.633 457.353 415.815C455.852 416.437 453.777 417.301 451.697 417.308C425.376 417.395 399.053 417.358 372.11 417.322C372.018 416.677 372.548 416.062 373.454 415.389Z" fill="#EA9244"/>
<path d="M1019.9 513.008C1039.82 512.464 1059.81 512.434 1079.8 512.322C1086.89 512.283 1093.97 512.042 1101.53 511.561C1103.07 512.312 1104.13 513.396 1104.79 514.872C1102.99 515.268 1101.59 515.272 1100.19 515.277C1096.23 516.374 1092.3 517.596 1088.31 518.517C1086.28 518.987 1083.66 519.816 1082.1 518.945C1070.99 512.711 1059.31 514.009 1047.39 514.733C1038.31 515.286 1029.12 513.973 1019.9 513.008Z" fill="#FF6A00"/>
<path d="M956.114 427.437C948.827 427.979 941.4 428.325 933.969 428.397C915.024 428.581 896.076 428.632 877.13 428.769C875.098 428.784 873.068 429.013 870.074 429.205C871.541 430.57 872.399 431.367 873.506 432.483C872.335 432.522 870.709 432.475 869.553 431.895C868.469 431.351 867.102 430.133 867.281 429.412C867.481 428.608 869.252 427.476 870.392 427.44C882.489 427.057 894.595 426.754 906.702 426.647C920.673 426.523 934.647 426.618 949.211 426.618C948.189 424.801 947.413 423.421 946.649 421.674C949.765 423.243 952.869 425.18 956.114 427.437Z" fill="#EC7D31"/>
<path d="M988.946 486.996C984.286 478.29 979.631 469.188 975.077 460.057C973.13 456.154 971.393 452.19 969.531 447.875C970.835 448.926 972.507 450.242 973.432 451.81C975.49 455.3 976.985 458.981 979.124 462.439C979.793 463.521 981.629 464.549 983.201 464.888C987.794 465.877 986.866 468.246 986.588 470.773C986.397 472.508 987.102 474.296 987.378 476.063C987.927 479.571 988.455 483.08 988.946 486.996Z" fill="#EC7D31"/>
<path d="M986.001 443.907C991.383 455.339 996.576 466.591 1001.75 478.201C998.163 478.682 998.202 471.379 991.721 477.239C994.21 464.712 986.853 454.839 983.961 443.89C984.601 443.571 985.206 443.649 986.001 443.907Z" fill="#EC7D31"/>
<path d="M1096.44 513.942C1098.46 513.525 1100.4 513.522 1103.08 513.505C1103.81 513.492 1103.75 513.502 1103.81 513.897C1106.88 515.54 1109.88 516.788 1112.89 518.035C1112.89 518.035 1112.74 518.115 1112.86 518.48C1114.75 519.349 1116.52 519.852 1118.29 520.354C1118.29 520.354 1118.19 520.407 1118.38 520.642C1119.11 521.082 1119.64 521.287 1120.17 521.491C1120.17 521.491 1120.15 521.397 1120.22 521.376C1118.19 522.314 1116.15 524.022 1113.97 524.097C1106.93 524.34 1099.83 523.983 1091.93 523.854C1092.85 520.686 1094.61 517.521 1096.44 513.942Z" fill="#FF6A00"/>
<path d="M1002.06 480.355C1006.28 488.274 1010.46 496.615 1014.62 504.959C1015.59 506.904 1016.53 508.86 1017.52 511.18C1012.13 512.135 1013.57 508.515 1012.75 506.679C1008.95 498.101 1005.55 489.422 1002.06 480.355Z" fill="#EC7D31"/>
<path d="M1062.34 542.628C1062.34 542.628 1061.71 542.626 1061.39 542.627C1055.08 538.341 1049.1 534.054 1043.03 529.441C1042.94 529.113 1043.07 529.009 1043.57 529.012C1051.61 533.41 1059.14 537.804 1066.54 542.32C1066.41 542.441 1066.13 542.678 1065.66 542.66C1064.24 542.637 1063.29 542.632 1062.34 542.628Z" fill="#FF6A00"/>
<path d="M567.446 358.062C576.024 352.808 585.073 347.579 594.557 342.307C591.196 344.879 587.617 347.711 583.549 350.06C578.552 352.946 573.146 355.43 567.446 358.062Z" fill="#EA9244"/>
<path d="M969.578 446.674C967.148 442.174 964.777 437.241 962.536 431.921C964.607 432.389 966.546 433.244 968.584 434.411C968.145 436.011 966.992 437.359 967.198 438.575C967.637 441.166 968.781 443.689 969.578 446.674Z" fill="#EC7D31"/>
<path d="M497.045 397.059C502.082 394.039 507.604 391.02 513.561 387.949C510.573 393.066 504.08 395.092 497.045 397.059Z" fill="#EA9244"/>
<path d="M520.227 329.971C518.909 334.079 517.165 338.242 515.059 342.61C515.184 339.613 515.669 336.41 515.733 332.99C516.808 331.857 518.303 330.942 520.227 329.971Z" fill="#EA9244"/>
<path d="M960.866 482.661C965.457 484.664 970.044 487.015 974.85 489.639C967.756 490.633 964.382 486.735 960.866 482.661Z" fill="#EC7D31"/>
<path d="M550.221 367.663C554.389 364.808 559.055 362.024 564.164 359.198C559.977 362.014 555.348 364.874 550.221 367.663Z" fill="#EA9244"/>
<path d="M413.321 444.579C417.699 441.698 422.555 438.824 427.851 435.915C423.461 438.782 418.63 441.684 413.321 444.579Z" fill="#EA9244"/>
<path d="M914.596 456.398C919.156 458.47 923.694 460.894 928.451 463.594C927.414 463.927 925.686 464.411 924.982 463.968C921.368 461.694 918.017 459.18 914.596 456.398Z" fill="#EC7D31"/>
<path d="M595.495 342.326C599.166 339.805 603.302 337.392 607.881 334.944C604.202 337.417 600.081 339.926 595.495 342.326Z" fill="#EA9244"/>
<path d="M503.587 339.774C506.609 337.588 510.081 335.378 513.982 333.15C510.952 335.338 507.494 337.544 503.587 339.774Z" fill="#EA9244"/>
<path d="M537.066 374.728C540.487 372.461 544.378 370.189 548.712 367.865C545.282 370.117 541.409 372.42 537.066 374.728Z" fill="#EA9244"/>
<path d="M878.52 436.081C881.891 437.457 885.226 439.208 888.729 441.261C884.332 441.132 879.587 440.908 878.52 436.081Z" fill="#EC7D31"/>
<path d="M196.869 566.669C199.593 564.731 202.798 562.861 206.439 560.927C203.7 562.821 200.526 564.778 196.869 566.669Z" fill="#EC7D31"/>
<path d="M989.134 498.207C990.468 498.016 991.758 498.187 993.376 498.162C994.638 498.433 995.573 498.901 996.508 499.368C994.972 499.899 993.429 500.828 991.903 500.814C990.953 500.804 990.027 499.366 989.134 498.207Z" fill="#EC7D31"/>
<path d="M378.044 464.796C380.783 462.81 384.01 460.87 387.678 458.889C384.924 460.846 381.727 462.844 378.044 464.796Z" fill="#EA9244"/>
<path d="M812.97 397.345C814.082 396.54 815.379 396.024 816.798 395.148C818.042 396.544 819.163 398.3 820.284 400.056C819.868 400.295 819.453 400.535 819.038 400.775C817.077 399.727 815.116 398.68 812.97 397.345Z" fill="#E7EAE9"/>
<path d="M357.924 425.083C360.171 423.488 362.873 421.879 366.022 420.231C363.774 421.818 361.076 423.444 357.924 425.083Z" fill="#EA9244"/>
<path d="M405.074 449.263C407.046 447.715 409.509 446.206 412.405 444.637C410.413 446.153 407.989 447.728 405.074 449.263Z" fill="#EA9244"/>
<path d="M393.611 455.94C394.99 454.597 396.861 453.377 399.146 452.094C397.741 453.376 395.922 454.72 393.611 455.94Z" fill="#EA9244"/>
<path d="M523.894 382.42C525.603 381.074 527.776 379.713 530.375 378.315C528.653 379.654 526.506 381.03 523.894 382.42Z" fill="#EA9244"/>
<path d="M514.474 387.971C515.916 386.661 517.826 385.461 520.161 384.206C518.705 385.461 516.824 386.771 514.474 387.971Z" fill="#EA9244"/>
<path d="M993.276 495.801C991.996 494.348 991.05 492.674 990.101 490.656C991.269 492.068 992.44 493.825 993.276 495.801Z" fill="#EC7D31"/>
<path d="M816.263 392.813C815.108 391.346 814.022 389.55 813.02 387.347C814.179 388.788 815.256 390.636 816.263 392.813Z" fill="#E7EAE9"/>
<path d="M207.323 560.964C208.735 559.666 210.638 558.414 212.962 557.108C211.526 558.371 209.67 559.69 207.323 560.964Z" fill="#EC7D31"/>
<path d="M213.826 557.12C215.257 555.861 217.169 554.63 219.5 553.347C218.048 554.579 216.178 555.864 213.826 557.12Z" fill="#EC7D31"/>
<path d="M185.058 571.832C186.597 571.208 187.812 570.764 189.419 570.309C188.536 571.392 187.261 572.486 185.985 573.579C185.568 573.057 185.151 572.535 185.058 571.832Z" fill="#EC7D31"/>
<path d="M971.083 436.191C972.865 436.876 974.696 437.91 976.713 439.256C974.977 438.558 973.054 437.55 971.083 436.191Z" fill="#EC7D31"/>
<path d="M744.161 358.77C745.887 359.399 747.806 360.322 749.793 361.579C748.025 360.964 746.189 360.013 744.161 358.77Z" fill="#E7EAE9"/>
<path d="M977.517 491.501C979.576 492.207 981.675 493.264 983.951 494.611C981.938 493.884 979.748 492.867 977.517 491.501Z" fill="#EC7D31"/>
<path d="M531.278 378.35C532.267 377.302 533.725 376.32 535.61 375.246C534.608 376.242 533.177 377.329 531.278 378.35Z" fill="#EA9244"/>
<path d="M755.363 365.205C756.85 365.62 758.438 366.332 760.105 367.359C758.611 366.95 757.037 366.225 755.363 365.205Z" fill="#E7EAE9"/>
<path d="M888.854 441.886C890.513 442.306 892.175 443.099 894.061 444.175C892.476 443.725 890.666 442.992 888.854 441.886Z" fill="#EC7D31"/>
<path d="M896.904 446.437C898.553 446.842 900.173 447.61 901.922 448.671C900.326 448.242 898.601 447.521 896.904 446.437Z" fill="#EC7D31"/>
<path d="M388.522 458.931C389.475 457.9 390.885 456.941 392.704 455.918C391.735 456.903 390.357 457.953 388.522 458.931Z" fill="#EA9244"/>
<path d="M366.83 420.222C367.832 419.247 369.276 418.274 371.165 417.276C370.163 418.241 368.718 419.233 366.83 420.222Z" fill="#EA9244"/>
<path d="M608.834 334.895C609.788 333.928 611.209 332.973 613.047 331.992C612.076 332.946 610.688 333.927 608.834 334.895Z" fill="#EA9244"/>
<path d="M908.164 452.526C909.494 452.864 910.81 453.565 912.234 454.56C910.944 454.198 909.546 453.544 908.164 452.526Z" fill="#EC7D31"/>
<path d="M429.415 435.653C430.139 434.728 431.347 433.856 432.979 432.947C432.235 433.842 431.067 434.774 429.415 435.653Z" fill="#EA9244"/>
<path d="M977.497 439.928C978.809 440.306 980.161 441.04 981.58 442.092C980.277 441.701 978.907 440.992 977.497 439.928Z" fill="#EC7D31"/>
<path d="M225.076 551.063C225.721 550.088 226.851 549.216 228.39 548.265C227.72 549.179 226.64 550.172 225.076 551.063Z" fill="#EC7D31"/>
<path d="M616.165 330.789C616.835 329.887 617.966 329.057 619.491 328.144C618.799 328.995 617.713 329.928 616.165 330.789Z" fill="#EA9244"/>
<path d="M220.39 553.295C221.226 552.508 222.531 551.722 224.26 550.934C223.409 551.72 222.134 552.508 220.39 553.295Z" fill="#EC7D31"/>
<path d="M400.087 452.098C400.635 451.348 401.661 450.673 403.099 449.916C402.529 450.614 401.546 451.394 400.087 452.098Z" fill="#EA9244"/>
<path d="M944.182 472.922C945.327 473.066 946.48 473.562 947.781 474.347C946.683 474.182 945.437 473.729 944.182 472.922Z" fill="#EC7D31"/>
<path d="M764.201 370.114C765.251 370.272 766.467 370.7 767.725 371.461C766.634 371.324 765.5 370.854 764.201 370.114Z" fill="#E7EAE9"/>
<path d="M902.04 449.368C903.227 449.485 904.402 449.964 905.723 450.735C904.589 450.594 903.308 450.162 902.04 449.368Z" fill="#EC7D31"/>
<path d="M373.627 466.987C374.158 466.371 375.117 465.74 376.47 465.103C375.927 465.721 374.991 466.348 373.627 466.987Z" fill="#EA9244"/>
<path d="M938.059 469.73C939.253 469.852 940.427 470.337 941.737 471.118C940.596 470.973 939.318 470.533 938.059 469.73Z" fill="#EC7D31"/>
<path d="M947.974 474.966C948.807 475.028 949.686 475.422 950.683 476.103C949.873 476.026 948.947 475.663 947.974 474.966Z" fill="#EC7D31"/>
<path d="M521.009 384.213C521.257 383.613 521.945 383.055 523.031 382.466C522.769 383.042 522.11 383.649 521.009 384.213Z" fill="#EA9244"/>
<path d="M786.889 382.899C787.665 382.98 788.602 383.336 789.603 384.02C788.794 383.955 787.922 383.565 786.889 382.899Z" fill="#E7EAE9"/>
<path d="M801.04 390.664C801.828 390.725 802.764 391.062 803.782 391.718C802.972 391.671 802.081 391.306 801.04 390.664Z" fill="#E7EAE9"/>
<path d="M806.292 393.525C807.064 393.588 807.962 393.931 808.945 394.579C808.159 394.524 807.289 394.164 806.292 393.525Z" fill="#E7EAE9"/>
<path d="M492.8 399.795C493.026 399.204 493.688 398.631 494.742 398.002C494.502 398.567 493.869 399.19 492.8 399.795Z" fill="#EA9244"/>
<path d="M191.686 569.567C191.914 568.935 192.6 568.366 193.69 567.763C193.443 568.363 192.793 568.996 191.686 569.567Z" fill="#EC7D31"/>
<path d="M752.255 363.444C753.027 363.494 753.938 363.822 754.948 364.451C754.163 364.409 753.278 364.066 752.255 363.444Z" fill="#E7EAE9"/>
<path d="M953.097 477.921C953.912 478.011 954.793 478.435 955.85 479.134C955.072 479.024 954.118 478.64 953.097 477.921Z" fill="#EC7D31"/>
<path d="M931.196 465.439C931.961 465.517 932.823 465.91 933.891 466.553C933.162 466.452 932.227 466.103 931.196 465.439Z" fill="#EC7D31"/>
<path d="M808.899 377.265C808.429 376.865 808.012 376.157 807.59 375.141C808.04 375.542 808.497 376.25 808.899 377.265Z" fill="#E7EAE9"/>
<path d="M990.221 489.987C989.709 489.56 989.244 488.787 988.807 487.678C989.313 488.108 989.79 488.874 990.221 489.987Z" fill="#EC7D31"/>
<path d="M565.003 359.147C565.158 358.788 565.71 358.421 566.653 358.033C566.496 358.388 565.948 358.763 565.003 359.147Z" fill="#EA9244"/>
<path d="M874.614 433.391C875.13 433.405 875.697 433.709 876.32 434.286C875.807 434.265 875.236 433.973 874.614 433.391Z" fill="#EC7D31"/>
<path d="M876.284 434.787C876.919 434.708 877.602 434.952 878.439 435.473C877.838 435.537 877.085 435.323 876.284 434.787Z" fill="#EC7D31"/>
<path d="M981.62 442.688C982.222 442.584 982.96 442.775 983.855 443.253C983.259 443.354 982.508 443.169 981.62 442.688Z" fill="#EC7D31"/>
<path d="M194.479 567.774C194.615 567.378 195.176 566.986 196.132 566.572C195.986 566.96 195.444 567.369 194.479 567.774Z" fill="#EC7D31"/>
<path d="M613.876 331.957C613.98 331.561 614.494 331.159 615.391 330.73C615.278 331.119 614.781 331.534 613.876 331.957Z" fill="#EA9244"/>
<path d="M984.151 495.123C984.703 495.067 985.394 495.292 986.251 495.781C985.708 495.832 984.999 495.618 984.151 495.123Z" fill="#EC7D31"/>
<path d="M958.45 481.204C959.087 481.164 959.813 481.466 960.711 482.057C960.101 482.08 959.32 481.812 958.45 481.204Z" fill="#EC7D31"/>
<path d="M950.751 476.628C951.326 476.569 952.016 476.803 952.864 477.31C952.304 477.362 951.585 477.142 950.751 476.628Z" fill="#EC7D31"/>
<path d="M941.829 471.712C942.453 471.62 943.158 471.846 944.03 472.344C943.435 472.421 942.673 472.225 941.829 471.712Z" fill="#EC7D31"/>
<path d="M936.331 468.241C936.868 468.257 937.458 468.576 938.104 469.174C937.569 469.151 936.976 468.848 936.331 468.241Z" fill="#EC7D31"/>
<path d="M895.197 445.095C895.715 445.079 896.289 445.348 896.93 445.875C896.415 445.883 895.834 445.631 895.197 445.095Z" fill="#EC7D31"/>
<path d="M912.288 455.176C912.938 455.078 913.645 455.305 914.501 455.815C913.882 455.9 913.113 455.701 912.288 455.176Z" fill="#EC7D31"/>
<path d="M905.818 451.337C906.433 451.249 907.136 451.478 908.024 451.966C907.442 452.034 906.674 451.844 905.818 451.337Z" fill="#EC7D31"/>
<path d="M750.068 362.261C750.353 362.12 750.611 362.246 750.922 362.591C751.028 362.746 750.484 362.752 750.484 362.752C750.484 362.752 750.094 362.466 750.068 362.261Z" fill="#E7EAE9"/>
<path d="M190.255 570.41C190.124 570.107 190.376 569.826 190.984 569.516C191.106 569.802 190.871 570.117 190.255 570.41Z" fill="#EC7D31"/>
<path d="M968.718 435.01C969.003 434.902 969.469 435.068 970.153 435.487C969.881 435.589 969.39 435.436 968.718 435.01Z" fill="#EC7D31"/>
<path d="M760.474 368.03C760.696 367.913 760.89 368.002 761.153 368.228C761.248 368.332 760.812 368.435 760.812 368.435C760.812 368.435 760.472 368.204 760.474 368.03Z" fill="#E7EAE9"/>
<path d="M767.899 372.05C768.225 371.858 768.568 372 768.978 372.444C768.649 372.691 768.273 372.57 767.899 372.05Z" fill="#E7EAE9"/>
<path d="M770.849 373.839C770.848 373.687 771.35 373.92 771.436 374.006C771.522 374.093 771.147 374.191 771.147 374.191C771.147 374.191 770.851 373.991 770.849 373.839Z" fill="#E7EAE9"/>
<path d="M807.558 374.449C807.244 374.45 806.95 374.175 806.643 373.627C806.946 373.627 807.262 373.9 807.558 374.449Z" fill="#E7EAE9"/>
<path d="M773.024 374.961C773.334 374.766 773.668 374.896 774.06 375.324C773.727 375.597 773.37 375.486 773.024 374.961Z" fill="#E7EAE9"/>
<path d="M987.936 497.142C988.2 497.068 988.59 497.231 989.084 497.647C988.813 497.726 988.437 497.552 987.936 497.142Z" fill="#EC7D31"/>
<path d="M809.833 379.252C809.429 379.32 809.212 379.094 809.125 378.579C809.527 378.488 809.782 378.71 809.833 379.252Z" fill="#E7EAE9"/>
<path d="M986.609 496.278C986.837 496.209 987.223 496.351 987.741 496.722C987.504 496.797 987.135 496.644 986.609 496.278Z" fill="#EC7D31"/>
<path d="M781.22 379.732C781.261 379.595 781.64 379.735 781.708 379.793C781.775 379.851 781.485 380.026 781.485 380.026C781.485 380.026 781.179 379.869 781.22 379.732Z" fill="#E7EAE9"/>
<path d="M811.201 382.163C810.773 382.244 810.536 382.011 810.424 381.473C810.854 381.361 811.136 381.588 811.201 382.163Z" fill="#E7EAE9"/>
<path d="M812.487 385.081C812.066 385.161 811.828 384.924 811.728 384.376C812.163 384.268 812.43 384.501 812.487 385.081Z" fill="#E7EAE9"/>
<path d="M793.569 386.622C793.889 386.416 794.233 386.546 794.64 386.981C794.298 387.276 793.928 387.167 793.569 386.622Z" fill="#E7EAE9"/>
<path d="M798.777 389.476C799.039 389.294 799.357 389.402 799.76 389.769C799.483 390.021 799.146 389.933 798.777 389.476Z" fill="#E7EAE9"/>
<path d="M371.96 467.802C371.905 467.606 372.14 467.339 372.71 467.06C372.883 467.344 372.618 467.572 371.96 467.802Z" fill="#EA9244"/>
<path d="M810.287 341.747C810.641 341.655 811.071 341.873 811.574 342.379C811.22 342.465 810.79 342.261 810.287 341.747Z" fill="#FCFBF8"/>
<path d="M1111.22 517.97C1109.18 517.228 1107.04 516.172 1104.86 514.774C1106.92 515.506 1109.02 516.58 1111.22 517.97Z" fill="#EC7D31"/>
<path d="M1115.01 519.958C1113.91 519.822 1112.65 519.396 1111.35 518.624C1112.49 518.741 1113.67 519.205 1115.01 519.958Z" fill="#EC7D31"/>
<path d="M1116.43 520.949C1116.14 521.036 1115.76 520.863 1115.25 520.455C1115.52 520.376 1115.93 520.532 1116.43 520.949Z" fill="#EC7D31"/>
<path d="M620.984 568.747C627.685 551.263 634.405 533.784 641.063 516.291C642.032 513.746 642.703 511.136 643.747 507.806C621.929 507.806 601.301 507.806 579.847 507.806C580.3 505.468 580.463 503.758 580.977 502.11C590.453 471.686 600.059 441.285 609.374 410.832C610.601 406.824 612.652 405.329 618.322 405.52C630.493 405.929 642.701 405.715 655.446 406.252C654.737 410.953 653.476 415.159 651.988 419.677C649.287 425.922 646.813 431.855 643.984 438.042C643.394 440.04 643.159 441.786 642.474 443.621C640.646 447.234 639.269 450.756 637.528 454.495C636.664 455.422 635.997 456.096 635.689 456.852C631.35 467.511 627.054 478.18 622.791 488.856C622.702 489.078 623.127 489.415 623.633 490.188C639.331 490.188 655.353 490.188 671.849 490.199C672.904 491.297 674.259 492.561 673.908 493.437C673.125 495.4 671.446 497.152 670.213 499.02C662.878 510.142 655.509 521.252 648.262 532.406C640.901 543.735 633.659 555.108 626.409 566.477C626.159 566.869 626.379 567.432 626.38 567.916C626.38 567.916 626.346 567.864 625.915 567.89C623.984 568.193 622.484 568.47 620.984 568.747Z" fill="#FF6A00"/>
<path d="M626.772 567.773C626.379 567.432 626.159 566.869 626.409 566.477C633.659 555.108 640.901 543.735 648.262 532.406C655.509 521.252 662.878 510.142 670.213 499.02C671.446 497.152 673.125 495.4 673.909 493.437C674.259 492.561 637.163 500.49 635.993 499.02C626.327 497.946 654.876 484.951 648.664 482.016C649.615 480.44 650.269 479.155 651.137 477.959C653.123 475.22 655.214 472.525 657.263 469.812C656.116 472.342 654.968 474.872 653.443 478.237C674.007 478.237 694.286 478.237 714.564 478.237C715.003 478.772 715.443 479.307 715.882 479.842C686.309 509.105 656.736 538.368 626.772 567.773Z" fill="#FF6A00"/>
<path d="M657.433 469.598C655.214 472.525 653.123 475.22 651.137 477.959C650.269 479.155 649.615 480.44 648.664 482.016C654.876 484.951 662.068 488.753 671.259 489.816C655.353 490.188 639.331 490.188 623.633 490.188C623.127 489.415 622.702 489.078 622.791 488.856C627.054 478.18 631.35 467.511 635.689 456.852C635.997 456.096 636.664 455.422 638.042 454.544C644.97 454.348 651.033 454.496 657.065 454.236C662.108 454.019 664.194 455.547 663.708 459.258C663.708 459.258 663.645 459.716 663.254 460.128C662.728 461.117 662.594 461.695 662.459 462.273C662.478 462.57 662.328 462.805 661.231 463.072C659.843 464.818 659.233 466.471 658.622 468.123C658.282 468.543 657.943 468.964 657.433 469.598Z" fill="#FF6A00"/>
<path d="M644.339 437.788C646.813 431.855 649.287 425.922 652.443 419.677C655.204 419.138 657.284 418.913 659.363 418.684C666.149 417.935 672.915 416.872 679.732 416.632C681.678 416.563 683.717 418.937 685.833 420.064C686.441 420.387 687.466 420.265 688.3 420.347C684.735 426.231 681.171 432.115 677.155 437.858C676.345 436.886 675.985 436.054 675.449 434.816C674.436 435.689 673.79 436.105 673.375 436.625C668.96 442.174 662.839 443.465 655.056 440.957C651.529 439.82 647.914 438.84 644.339 437.788Z" fill="#FF6A00"/>
<path d="M688.645 420.141C687.466 420.265 686.441 420.387 685.833 420.064C683.717 418.937 681.678 416.563 679.732 416.632C672.915 416.872 666.149 417.935 659.363 418.684C657.284 418.913 655.204 419.138 652.67 419.364C653.476 415.159 654.737 410.953 656.045 406.36C669.489 405.972 682.887 405.972 697.293 405.972C694.336 410.946 691.663 415.441 688.645 420.141Z" fill="#EDA35F"/>
<path d="M645.639 407.21C648.854 405.754 692.271 404.617 695.798 405.754C703.581 408.262 668.96 442.174 673.376 436.625C673.79 436.105 696.714 406.627 697.727 405.754C698.263 406.993 676.345 436.886 676.815 438.108C674.586 442.713 654.881 476.947 652.069 480.983C651.778 477.059 665.663 447.605 662.465 447.475C656.898 447.248 628.634 480.165 623.131 479.527C622.008 479.397 618.772 445.147 632.134 443.126C616.199 440.551 645.049 409.209 645.639 407.21Z" fill="#FF6A00"/>
<path d="M642.474 443.621C643.881 444.485 644.694 446.142 645.817 446.273C651.32 446.91 656.898 447.248 662.464 447.475C665.663 447.605 669.142 447.04 669.107 451.195C669.252 451.603 669.181 451.575 668.673 451.542C667.57 453.097 666.974 454.685 666.379 456.272C665.745 457.18 665.111 458.087 664.093 459.126C664.194 455.547 662.108 454.019 657.065 454.236C651.033 454.496 644.97 454.348 638.406 454.328C639.269 450.756 640.646 447.234 642.474 443.621Z" fill="#FF6A00"/>
<path d="M620.63 569.001C622.484 568.47 623.984 568.193 625.951 567.899C624.506 569.735 622.594 571.587 620.297 573.558C619.912 573.678 619.961 573.707 619.961 573.707C620.067 572.224 620.172 570.74 620.63 569.001Z" fill="#EA9244"/>
<path d="M666.701 456.053C666.974 454.685 667.57 453.097 668.638 451.528C668.415 452.976 667.719 454.404 666.701 456.053Z" fill="#EDA35F"/>
<path d="M658.964 467.887C659.233 466.471 659.843 464.818 660.982 463.149C660.775 464.639 660.04 466.145 658.964 467.887Z" fill="#EA9244"/>
<path d="M619.89 573.661C619.764 574.068 619.659 574.494 619.554 574.919C619.422 574.903 619.29 574.886 619.159 574.87C619.23 574.52 619.301 574.169 619.667 573.763C619.962 573.707 619.912 573.678 619.89 573.661Z" fill="#EA9244"/>
<path d="M662.775 462.081C662.594 461.695 662.728 461.117 663.161 460.347C663.337 460.733 663.214 461.312 662.775 462.081Z" fill="#EA9244"/>
<path d="M621 744C621.459 744.112 621.741 744.388 622 744.682C622.007 744.69 621.775 744.89 621.654 745C621.376 744.722 621.098 744.444 621 744Z" fill="white"/>
<path d="M768 743.046C767.813 743.366 767.448 743.683 767.084 744C766.992 743.773 766.9 743.546 767.252 743.114C767.696 742.909 767.822 743.043 768 743.046Z" fill="white"/>
<path d="M1100 766C1099.99 765.173 1100.33 764.587 1100.66 764C1101.11 764.148 1101.55 764.295 1102 764.442C1101.45 765.042 1100.9 765.641 1100 766Z" fill="white"/>
<path d="M1088.07 554.271C1100.38 560.09 1112.72 566.593 1125.37 573.67C1114.38 573.777 1103.1 573.312 1092.57 572.877C1091.45 568.369 1089.78 561.663 1088.07 554.271Z" fill="#FF6A00"/>
<path d="M1070.41 544.577C1074.2 546.272 1078.03 548.316 1081.98 550.661C1075.84 551.571 1073.53 547.821 1070.41 544.577Z" fill="#FF6A00"/>
<path d="M1084.38 552.508C1086.51 553.201 1088.63 554.259 1090.89 555.611C1088.81 554.895 1086.59 553.884 1084.38 552.508Z" fill="#EC7D31"/>
<path d="M1066.54 542.32C1067.84 542.689 1069.01 543.18 1070.32 543.952C1069.25 544.198 1068.03 544.162 1066.49 543.631C1066.18 543.135 1066.13 542.678 1066.13 542.678C1066.13 542.678 1066.41 542.441 1066.54 542.32Z" fill="#EC7D31"/>
<path d="M1089.95 577.19C1089.8 577.625 1089.44 577.891 1089.05 578.137C1089.04 578.143 1088.78 577.924 1088.64 577.809C1089 577.546 1089.37 577.282 1089.95 577.19Z" fill="#EC7D31"/>
<path d="M1112.65 568.072C1113.51 568.118 1114.38 568.51 1115.38 569.182C1114.55 569.114 1113.61 568.766 1112.65 568.072Z" fill="#FF6A00"/>
<path d="M1128.63 565.327C1128.78 564.893 1129.14 564.629 1129.51 564.366C1129.65 564.48 1129.8 564.594 1129.94 564.708C1129.58 564.971 1129.21 565.235 1128.63 565.327Z" fill="#FF6A00"/>
<path d="M1065.66 542.66C1066.13 542.678 1066.18 543.135 1066.19 543.365C1065.09 543.441 1063.98 543.287 1062.61 542.881C1063.29 542.632 1064.24 542.637 1065.66 542.66Z" fill="#ED7A2B"/>
<path d="M1082.07 551.269C1082.7 551.177 1083.4 551.409 1084.26 551.914C1083.65 551.99 1082.89 551.792 1082.07 551.269Z" fill="#EC7D31"/>
<path d="M1090.99 556.187C1091.35 556.054 1091.76 556.207 1092.27 556.62C1091.93 556.744 1091.49 556.608 1090.99 556.187Z" fill="#EC7D31"/>
<path d="M683.516 421.8C683.558 421.853 683.475 421.747 683.516 421.8Z" fill="#EDA35F"/>
</g>
<defs>
<clipPath id="clip0_6_3">
<rect width="1317" height="994" fill="white"/>
</clipPath>
</defs>
</svg>
